<svg width="30" height="30" viewBox="0 0 30 30" fill="none" xmlns="http://www.w3.org/2000/svg">
<circle cx="15" cy="15" r="15" fill="#EFF3F8"/>
<g clip-path="url(#clip0)">
<path d="M18.3994 21.4159L18.1707 22.3506C17.4848 22.6213 16.9369 22.8273 16.5289 22.969C16.1204 23.1111 15.6459 23.1818 15.1051 23.1818C14.2748 23.1818 13.6289 22.9784 13.1682 22.5744C12.7076 22.1687 12.4772 21.6547 12.4772 21.0311C12.4772 20.7897 12.4939 20.5414 12.5286 20.2884C12.5637 20.0351 12.6194 19.7499 12.6957 19.431L13.5529 16.397C13.6292 16.1065 13.694 15.8312 13.7459 15.5709C13.7986 15.3122 13.8239 15.0741 13.8239 14.8599C13.8239 14.4724 13.7437 14.2014 13.584 14.049C13.4243 13.8971 13.1195 13.8199 12.6671 13.8199C12.4455 13.8199 12.2177 13.8554 11.9856 13.924C11.7524 13.993 11.5531 14.0596 11.3857 14.1214L11.615 13.1861C12.1765 12.9574 12.7133 12.7616 13.2267 12.5991C13.7402 12.4362 14.2253 12.3547 14.6842 12.3547C15.5089 12.3547 16.1452 12.554 16.5921 12.9526C17.039 13.3515 17.2623 13.8686 17.2623 14.5058C17.2623 14.6377 17.2477 14.87 17.2161 15.202C17.1853 15.5348 17.128 15.8397 17.0444 16.117L16.1908 19.1389C16.1209 19.3816 16.058 19.6591 16.0033 19.9713C15.9468 20.2815 15.9198 20.5185 15.9198 20.6775C15.9198 21.0787 16.0093 21.3527 16.1886 21.4983C16.3693 21.644 16.6805 21.7164 17.1226 21.7164C17.3301 21.7164 17.5662 21.6796 17.8286 21.6073C18.0902 21.535 18.281 21.4715 18.3994 21.4159ZM18.6158 8.72913C18.6158 9.25563 18.4174 9.70528 18.0186 10.075C17.6209 10.446 17.1416 10.6317 16.5809 10.6317C16.0185 10.6317 15.5381 10.446 15.1358 10.075C14.7342 9.70513 14.533 9.25563 14.533 8.72913C14.533 8.20365 14.7342 7.75327 15.1358 7.37885C15.5373 7.00502 16.0187 6.81818 16.5809 6.81818C17.1415 6.81818 17.6209 7.00546 18.0186 7.37885C18.4177 7.75327 18.6158 8.2038 18.6158 8.72913Z" fill="#63C463"/>
</g>
<defs>
<clipPath id="clip0">
<rect width="16.3636" height="16.3636" fill="white" transform="translate(6.81836 6.81818)"/>
</clipPath>
</defs>
</svg>
