<svg width="40" height="40" viewBox="0 0 40 40" fill="none" xmlns="http://www.w3.org/2000/svg">
<g clip-path="url(#clip0)">
<path d="M36.6666 9.00008H28.3334V7.33336C28.3334 5.495 26.8384 4 25 4H15C13.1616 4 11.6666 5.49492 11.6666 7.33336V9H3.33336C1.49492 9.00008 0 10.495 0 12.3334V34C0 35.8384 1.49492 37.3334 3.33336 37.3334H36.6667C38.5051 37.3334 40.0001 35.8384 40.0001 34V12.3334C40 10.495 38.5051 9.00008 36.6666 9.00008ZM13.3334 7.33336C13.3334 6.41461 14.0813 5.66672 15 5.66672H25C25.9188 5.66672 26.6666 6.41461 26.6666 7.33336V9H13.3334V7.33336ZM38.3334 34.0001C38.3334 34.9188 37.5855 35.6667 36.6667 35.6667H3.33336C2.41461 35.6667 1.66672 34.9188 1.66672 34.0001V21.8698C2.15898 22.1569 2.72352 22.3334 3.33336 22.3334H16.6667V24.8334C16.6667 25.2941 17.0395 25.6668 17.5001 25.6668H22.5001C22.9607 25.6668 23.3334 25.2941 23.3334 24.8334V22.3334H36.6668C37.2766 22.3334 37.8413 22.157 38.3334 21.8698V34.0001H38.3334ZM18.3334 24.0001V20.6667H21.6667V24.0001H18.3334ZM38.3334 19.0001C38.3334 19.9188 37.5855 20.6667 36.6667 20.6667H23.3334V19.8334C23.3334 19.3727 22.9606 19 22.5 19H17.5C17.0394 19 16.6666 19.3727 16.6666 19.8334V20.6667H3.33336C2.41461 20.6667 1.66672 19.9188 1.66672 19.0001V12.3334C1.66672 11.4147 2.41461 10.6668 3.33336 10.6668H36.6667C37.5855 10.6668 38.3334 11.4147 38.3334 12.3334V19.0001Z" fill="#465C79"/>
</g>
<defs>
<clipPath id="clip0">
<rect width="40" height="40" fill="white"/>
</clipPath>
</defs>
</svg>
