<svg width="50" height="50" viewBox="0 0 50 50" fill="none" xmlns="http://www.w3.org/2000/svg">
<path d="M44.5312 6.24988H40.625V4.68738C40.625 3.85858 40.2958 3.06372 39.7097 2.47767C39.1237 1.89162 38.3288 1.56238 37.5 1.56238C36.6712 1.56238 35.8763 1.89162 35.2903 2.47767C34.7042 3.06372 34.375 3.85858 34.375 4.68738V6.24988H28.125V4.68738C28.125 3.85858 27.7958 3.06372 27.2097 2.47767C26.6237 1.89162 25.8288 1.56238 25 1.56238C24.1712 1.56238 23.3763 1.89162 22.7903 2.47767C22.2042 3.06372 21.875 3.85858 21.875 4.68738V6.24988H15.625V4.68738C15.625 3.85858 15.2958 3.06372 14.7097 2.47767C14.1237 1.89162 13.3288 1.56238 12.5 1.56238C11.6712 1.56238 10.8763 1.89162 10.2903 2.47767C9.70424 3.06372 9.375 3.85858 9.375 4.68738V6.24988H5.46875C4.43275 6.24988 3.43918 6.66143 2.70661 7.39399C1.97405 8.12656 1.5625 9.12013 1.5625 10.1561V41.4061C1.5625 42.4421 1.97405 43.4357 2.70661 44.1683C3.43918 44.9008 4.43275 45.3124 5.46875 45.3124H27.3438C27.551 45.3124 27.7497 45.2301 27.8962 45.0836C28.0427 44.937 28.125 44.7383 28.125 44.5311C28.125 44.3239 28.0427 44.1252 27.8962 43.9787C27.7497 43.8322 27.551 43.7499 27.3438 43.7499H5.46875C4.84772 43.748 4.25265 43.5005 3.81352 43.0614C3.37438 42.6222 3.12685 42.0272 3.125 41.4061V17.1874H46.875V30.4686C46.875 30.6758 46.9573 30.8745 47.1038 31.0211C47.2503 31.1676 47.4491 31.2499 47.6562 31.2499C47.8634 31.2499 48.0622 31.1676 48.2087 31.0211C48.3552 30.8745 48.4375 30.6758 48.4375 30.4686V10.1561C48.4375 9.12013 48.026 8.12656 47.2934 7.39399C46.5608 6.66143 45.5673 6.24988 44.5312 6.24988ZM35.9375 4.68738C35.9375 4.27298 36.1021 3.87555 36.3951 3.58252C36.6882 3.2895 37.0856 3.12488 37.5 3.12488C37.9144 3.12488 38.3118 3.2895 38.6049 3.58252C38.8979 3.87555 39.0625 4.27298 39.0625 4.68738V9.37488C39.0625 9.78928 38.8979 10.1867 38.6049 10.4797C38.3118 10.7728 37.9144 10.9374 37.5 10.9374C37.0856 10.9374 36.6882 10.7728 36.3951 10.4797C36.1021 10.1867 35.9375 9.78928 35.9375 9.37488V4.68738ZM23.4375 4.68738C23.4375 4.27298 23.6021 3.87555 23.8951 3.58252C24.1882 3.2895 24.5856 3.12488 25 3.12488C25.4144 3.12488 25.8118 3.2895 26.1049 3.58252C26.3979 3.87555 26.5625 4.27298 26.5625 4.68738V9.37488C26.5625 9.78928 26.3979 10.1867 26.1049 10.4797C25.8118 10.7728 25.4144 10.9374 25 10.9374C24.5856 10.9374 24.1882 10.7728 23.8951 10.4797C23.6021 10.1867 23.4375 9.78928 23.4375 9.37488V4.68738ZM10.9375 4.68738C10.9375 4.27298 11.1021 3.87555 11.3951 3.58252C11.6882 3.2895 12.0856 3.12488 12.5 3.12488C12.9144 3.12488 13.3118 3.2895 13.6049 3.58252C13.8979 3.87555 14.0625 4.27298 14.0625 4.68738V9.37488C14.0625 9.78928 13.8979 10.1867 13.6049 10.4797C13.3118 10.7728 12.9144 10.9374 12.5 10.9374C12.0856 10.9374 11.6882 10.7728 11.3951 10.4797C11.1021 10.1867 10.9375 9.78928 10.9375 9.37488V4.68738ZM46.875 15.6249H3.125V10.1561C3.12685 9.5351 3.37438 8.94003 3.81352 8.5009C4.25265 8.06176 4.84772 7.81423 5.46875 7.81238H9.375V9.37488C9.375 10.2037 9.70424 10.9985 10.2903 11.5846C10.8763 12.1706 11.6712 12.4999 12.5 12.4999C13.3288 12.4999 14.1237 12.1706 14.7097 11.5846C15.2958 10.9985 15.625 10.2037 15.625 9.37488V7.81238H21.875V9.37488C21.875 10.2037 22.2042 10.9985 22.7903 11.5846C23.3763 12.1706 24.1712 12.4999 25 12.4999C25.8288 12.4999 26.6237 12.1706 27.2097 11.5846C27.7958 10.9985 28.125 10.2037 28.125 9.37488V7.81238H34.375V9.37488C34.375 10.2037 34.7042 10.9985 35.2903 11.5846C35.8763 12.1706 36.6712 12.4999 37.5 12.4999C38.3288 12.4999 39.1237 12.1706 39.7097 11.5846C40.2958 10.9985 40.625 10.2037 40.625 9.37488V7.81238H44.5312C45.1523 7.81423 45.7473 8.06176 46.1865 8.5009C46.6256 8.94003 46.8731 9.5351 46.875 10.1561V15.6249Z" fill="#63C463"/>
<path d="M23.4375 22.6561C23.4375 22.2417 23.2729 21.8443 22.9799 21.5513C22.6868 21.2582 22.2894 21.0936 21.875 21.0936H18.75C18.3356 21.0936 17.9382 21.2582 17.6451 21.5513C17.3521 21.8443 17.1875 22.2417 17.1875 22.6561V24.9999C17.1875 25.4143 17.3521 25.8117 17.6451 26.1047C17.9382 26.3978 18.3356 26.5624 18.75 26.5624H21.875C22.2894 26.5624 22.6868 26.3978 22.9799 26.1047C23.2729 25.8117 23.4375 25.4143 23.4375 24.9999V22.6561ZM18.75 24.9999V22.6561H21.875V24.9999H18.75Z" fill="#63C463"/>
<path d="M14.0625 22.6561C14.0625 22.2417 13.8979 21.8443 13.6049 21.5513C13.3118 21.2582 12.9144 21.0936 12.5 21.0936H9.375C8.9606 21.0936 8.56317 21.2582 8.27015 21.5513C7.97712 21.8443 7.8125 22.2417 7.8125 22.6561V24.9999C7.8125 25.4143 7.97712 25.8117 8.27015 26.1047C8.56317 26.3978 8.9606 26.5624 9.375 26.5624H12.5C12.9144 26.5624 13.3118 26.3978 13.6049 26.1047C13.8979 25.8117 14.0625 25.4143 14.0625 24.9999V22.6561ZM9.375 24.9999V22.6561H12.5V24.9999H9.375Z" fill="#63C463"/>
<path d="M40.625 26.5624C41.0394 26.5624 41.4368 26.3978 41.7299 26.1047C42.0229 25.8117 42.1875 25.4143 42.1875 24.9999V22.6561C42.1875 22.2417 42.0229 21.8443 41.7299 21.5513C41.4368 21.2582 41.0394 21.0936 40.625 21.0936H37.5C37.0856 21.0936 36.6882 21.2582 36.3951 21.5513C36.1021 21.8443 35.9375 22.2417 35.9375 22.6561V24.9999C35.9375 25.4143 36.1021 25.8117 36.3951 26.1047C36.6882 26.3978 37.0856 26.5624 37.5 26.5624H40.625ZM37.5 22.6561H40.625V24.9999H37.5V22.6561Z" fill="#63C463"/>
<path d="M23.4375 29.6874C23.4375 29.273 23.2729 28.8755 22.9799 28.5825C22.6868 28.2895 22.2894 28.1249 21.875 28.1249H18.75C18.3356 28.1249 17.9382 28.2895 17.6451 28.5825C17.3521 28.8755 17.1875 29.273 17.1875 29.6874V32.0311C17.1875 32.4455 17.3521 32.843 17.6451 33.136C17.9382 33.429 18.3356 33.5936 18.75 33.5936H21.875C22.2894 33.5936 22.6868 33.429 22.9799 33.136C23.2729 32.843 23.4375 32.4455 23.4375 32.0311V29.6874ZM18.75 32.0311V29.6874H21.875V32.0311H18.75Z" fill="#63C463"/>
<path d="M14.0625 29.6874C14.0625 29.273 13.8979 28.8755 13.6049 28.5825C13.3118 28.2895 12.9144 28.1249 12.5 28.1249H9.375C8.9606 28.1249 8.56317 28.2895 8.27015 28.5825C7.97712 28.8755 7.8125 29.273 7.8125 29.6874V32.0311C7.8125 32.4455 7.97712 32.843 8.27015 33.136C8.56317 33.429 8.9606 33.5936 9.375 33.5936H12.5C12.9144 33.5936 13.3118 33.429 13.6049 33.136C13.8979 32.843 14.0625 32.4455 14.0625 32.0311V29.6874ZM9.375 32.0311V29.6874H12.5V32.0311H9.375Z" fill="#63C463"/>
<path d="M21.875 35.1561H18.75C18.3356 35.1561 17.9382 35.3207 17.6451 35.6138C17.3521 35.9068 17.1875 36.3042 17.1875 36.7186V39.0624C17.1875 39.4768 17.3521 39.8742 17.6451 40.1672C17.9382 40.4603 18.3356 40.6249 18.75 40.6249H21.875C22.2894 40.6249 22.6868 40.4603 22.9799 40.1672C23.2729 39.8742 23.4375 39.4768 23.4375 39.0624V36.7186C23.4375 36.3042 23.2729 35.9068 22.9799 35.6138C22.6868 35.3207 22.2894 35.1561 21.875 35.1561ZM18.75 39.0624V36.7186H21.875V39.0624H18.75Z" fill="#63C463"/>
<path d="M28.125 26.5624H31.25C31.6644 26.5624 32.0618 26.3978 32.3549 26.1047C32.6479 25.8117 32.8125 25.4143 32.8125 24.9999V22.6561C32.8125 22.2417 32.6479 21.8443 32.3549 21.5513C32.0618 21.2582 31.6644 21.0936 31.25 21.0936H28.125C27.7106 21.0936 27.3132 21.2582 27.0201 21.5513C26.7271 21.8443 26.5625 22.2417 26.5625 22.6561V24.9999C26.5625 25.4143 26.7271 25.8117 27.0201 26.1047C27.3132 26.3978 27.7106 26.5624 28.125 26.5624ZM28.125 22.6561H31.25V24.9999H28.125V22.6561Z" fill="#63C463"/>
<path d="M26.5625 32.0311C26.5625 32.4455 26.7271 32.843 27.0201 33.136C27.3132 33.429 27.7106 33.5936 28.125 33.5936C28.3322 33.5936 28.5309 33.5113 28.6774 33.3648C28.8239 33.2183 28.9062 33.0196 28.9062 32.8124C28.9062 32.6052 28.8239 32.4065 28.6774 32.26C28.5309 32.1134 28.3322 32.0311 28.125 32.0311V29.6874H31.25C31.4572 29.6874 31.6559 29.6051 31.8024 29.4586C31.9489 29.312 32.0312 29.1133 32.0312 28.9061C32.0312 28.6989 31.9489 28.5002 31.8024 28.3537C31.6559 28.2072 31.4572 28.1249 31.25 28.1249H28.125C27.7106 28.1249 27.3132 28.2895 27.0201 28.5825C26.7271 28.8755 26.5625 29.273 26.5625 29.6874V32.0311Z" fill="#63C463"/>
<path d="M12.5 35.1561H9.375C8.9606 35.1561 8.56317 35.3207 8.27015 35.6138C7.97712 35.9068 7.8125 36.3042 7.8125 36.7186V39.0624C7.8125 39.4768 7.97712 39.8742 8.27015 40.1672C8.56317 40.4603 8.9606 40.6249 9.375 40.6249H12.5C12.9144 40.6249 13.3118 40.4603 13.6049 40.1672C13.8979 39.8742 14.0625 39.4768 14.0625 39.0624V36.7186C14.0625 36.3042 13.8979 35.9068 13.6049 35.6138C13.3118 35.3207 12.9144 35.1561 12.5 35.1561ZM9.375 39.0624V36.7186H12.5V39.0624H9.375Z" fill="#63C463"/>
<path d="M38.2812 28.1249C36.2725 28.1249 34.3089 28.7205 32.6387 29.8365C30.9686 30.9525 29.6668 32.5387 28.8981 34.3945C28.1294 36.2503 27.9283 38.2924 28.3202 40.2625C28.712 42.2326 29.6793 44.0423 31.0997 45.4627C32.5201 46.883 34.3297 47.8503 36.2999 48.2422C38.27 48.6341 40.3121 48.433 42.1679 47.6643C44.0237 46.8956 45.6099 45.5938 46.7259 43.9236C47.8418 42.2534 48.4375 40.2898 48.4375 38.2811C48.4344 35.5885 47.3634 33.007 45.4594 31.103C43.5554 29.199 40.9739 28.128 38.2812 28.1249ZM38.2812 46.8749C36.5816 46.8749 34.9201 46.3709 33.5068 45.4266C32.0936 44.4823 30.9921 43.1401 30.3417 41.5698C29.6912 39.9995 29.521 38.2716 29.8526 36.6046C30.1842 34.9375 31.0027 33.4063 32.2046 32.2044C33.4064 31.0026 34.9377 30.1841 36.6047 29.8525C38.2717 29.5209 39.9996 29.6911 41.5699 30.3415C43.1402 30.992 44.4824 32.0935 45.4267 33.5067C46.371 34.9199 46.875 36.5814 46.875 38.2811C46.8723 40.5595 45.966 42.7438 44.355 44.3548C42.7439 45.9659 40.5596 46.8722 38.2812 46.8749Z" fill="#63C463"/>
<path d="M42.7953 35.0062L36.7188 41.0827L33.9571 38.3202C33.8097 38.1779 33.6124 38.0992 33.4075 38.101C33.2027 38.1027 33.0067 38.1849 32.8619 38.3297C32.717 38.4746 32.6349 38.6705 32.6331 38.8754C32.6313 39.0802 32.7101 39.2776 32.8524 39.4249L36.1664 42.7398C36.3129 42.8862 36.5116 42.9685 36.7188 42.9685C36.9259 42.9685 37.1246 42.8862 37.2711 42.7398L43.9 36.1109C44.0423 35.9635 44.1211 35.7662 44.1193 35.5613C44.1175 35.3565 44.0353 35.1605 43.8905 35.0157C43.7456 34.8708 43.5497 34.7887 43.3449 34.7869C43.14 34.7851 42.9427 34.8639 42.7953 35.0062Z" fill="#63C463"/>
</svg>
