<svg width="50" height="50" viewBox="0 0 50 50" fill="none" xmlns="http://www.w3.org/2000/svg">
<path d="M2.32428 35.2791C2.15736 35.2806 1.99047 35.2735 1.82428 35.2577C1.69194 35.2421 1.5666 35.1898 1.46244 35.1066C1.35828 35.0235 1.27945 34.9129 1.23486 34.7873C1.19028 34.6617 1.18171 34.5262 1.21014 34.396C1.23856 34.2658 1.30284 34.1461 1.39571 34.0506C2.22116 33.2216 2.86866 32.2329 3.29854 31.1449C3.72842 30.057 3.93163 28.8927 3.89571 27.7234C2.7152 26.7449 1.75705 25.5258 1.08525 24.1474C0.413453 22.7691 0.0434662 21.2633 0 19.7306C0 12.7106 7.89928 6.99988 17.6086 6.99988C23.2464 6.99988 28.4007 8.87273 31.7514 12.137C31.8186 12.2027 31.8721 12.2809 31.909 12.3673C31.946 12.4537 31.9655 12.5464 31.9666 12.6404C31.9676 12.7343 31.9502 12.8275 31.9152 12.9147C31.8803 13.0018 31.8285 13.0813 31.7628 13.1484C31.6972 13.2156 31.6189 13.2692 31.5326 13.3061C31.4462 13.343 31.3534 13.3626 31.2595 13.3636C31.1656 13.3647 31.0723 13.3472 30.9852 13.3123C30.898 13.2773 30.8186 13.2255 30.7514 13.1599C27.7121 10.1977 22.7985 8.42845 17.6086 8.42845C8.68713 8.42845 1.42857 13.4984 1.42857 19.7306C1.42857 22.302 2.70285 24.8177 5.01714 26.8127C5.14502 26.9228 5.22979 27.0746 5.25642 27.2413C5.49951 29.5554 4.86841 31.8767 3.48714 33.7491C6.01398 33.3046 8.37685 32.1952 10.3328 30.5349C10.4186 30.466 10.5191 30.4178 10.6265 30.3941C10.7339 30.3705 10.8454 30.3719 10.9521 30.3984C12.2126 30.6677 13.4914 30.8424 14.7778 30.9213C14.8714 30.9286 14.9625 30.9542 15.0462 30.9967C15.1298 31.0392 15.2042 31.0977 15.2652 31.169C15.3262 31.2403 15.3725 31.3229 15.4016 31.412C15.4307 31.5012 15.4419 31.5953 15.4346 31.6888C15.4274 31.7823 15.4017 31.8735 15.3592 31.9571C15.3167 32.0407 15.2582 32.1151 15.1869 32.1761C15.1156 32.2371 15.033 32.2835 14.9439 32.3125C14.8547 32.3416 14.7606 32.3528 14.6671 32.3456C13.4206 32.2589 12.1803 32.0981 10.9528 31.8641C6.97356 34.9563 3.57142 35.2791 2.32428 35.2791Z" fill="#63C463"/>
<path d="M46.2714 19.222C46.1724 19.2221 46.0746 19.2016 45.9839 19.1619C45.8933 19.1222 45.8119 19.0641 45.7449 18.9913C45.2747 18.48 44.765 18.0064 44.2207 17.5749C44.1471 17.5166 44.0858 17.4444 44.0401 17.3625C43.9945 17.2805 43.9654 17.1904 43.9546 17.0972C43.9438 17.004 43.9514 16.9096 43.9771 16.8194C44.0028 16.7291 44.046 16.6448 44.1042 16.5713C44.1625 16.4978 44.2346 16.4364 44.3166 16.3908C44.3986 16.3451 44.4887 16.316 44.5819 16.3052C44.6751 16.2944 44.7695 16.3021 44.8597 16.3277C44.95 16.3534 45.0343 16.3966 45.1078 16.4549C45.7111 16.9337 46.276 17.4591 46.7971 18.0263C46.8903 18.1285 46.9519 18.2555 46.9743 18.392C46.9967 18.5285 46.979 18.6686 46.9233 18.7952C46.8676 18.9218 46.7764 19.0296 46.6607 19.1053C46.5449 19.1811 46.4097 19.2216 46.2714 19.222Z" fill="#63C463"/>
<path d="M47.5464 42.4477C46.2057 42.4477 42.52 42.0998 38.2043 38.7384C35.8226 39.1737 33.4068 39.3953 30.9857 39.4005C23.8771 39.4005 17.4236 36.5855 14.1429 32.0555C12.7532 30.2125 11.9897 27.973 11.9643 25.6648C11.9643 18.0934 20.4971 11.9291 30.9857 11.9291C31.0914 11.9291 31.2057 11.9291 31.3107 11.9391C31.9107 11.9391 32.5878 11.9684 33.3264 12.032C33.5151 12.0485 33.6895 12.1393 33.8112 12.2843C33.933 12.4294 33.9921 12.6169 33.9757 12.8056C33.9689 12.8995 33.9433 12.9911 33.9005 13.075C33.8577 13.1589 33.7984 13.2333 33.7263 13.2939C33.6541 13.3544 33.5706 13.3999 33.4805 13.4275C33.3905 13.4552 33.2958 13.4645 33.2021 13.4549C32.5057 13.3941 31.8671 13.3649 31.25 13.3649C31.1228 13.357 31.0507 13.357 30.9857 13.3577C21.285 13.3577 13.3929 18.8784 13.3929 25.6648C13.41 27.6721 14.0786 29.6195 15.2979 31.2141C18.3164 35.3834 24.3271 37.972 30.9857 37.972C33.4095 37.9715 35.8277 37.7368 38.2064 37.2713C38.3132 37.2449 38.4247 37.2435 38.5321 37.2673C38.6395 37.2911 38.74 37.3394 38.8257 37.4084C40.9877 39.2571 43.6154 40.4773 46.4228 40.9363C44.3828 38.0877 44.1664 34.9563 44.4364 33.782C44.4675 33.6267 44.5489 33.4859 44.6678 33.3813C47.185 31.1977 48.5714 28.457 48.5714 25.6648C48.5735 25.1062 48.5187 24.5488 48.4078 24.0013C48.378 23.8191 48.4199 23.6325 48.5247 23.4806C48.6295 23.3286 48.789 23.2232 48.9698 23.1862C49.1506 23.1493 49.3387 23.1838 49.4947 23.2824C49.6506 23.3811 49.7623 23.5363 49.8064 23.7156C49.9375 24.357 50.0023 25.0102 50 25.6648C50 28.8077 48.5085 31.8598 45.795 34.2927C45.747 35.5724 45.9637 36.8482 46.4313 38.0404C46.899 39.2326 47.6076 40.3154 48.5128 41.2213C48.6058 41.3171 48.67 41.437 48.6983 41.5675C48.7265 41.6979 48.7177 41.8337 48.6727 41.9594C48.6277 42.0851 48.5484 42.1956 48.4437 42.2785C48.3391 42.3614 48.2133 42.4134 48.0807 42.4284C47.903 42.4439 47.7247 42.4504 47.5464 42.4477Z" fill="#63C463"/>
<path d="M40.3499 15.1942C40.2516 15.1944 40.1543 15.1743 40.0642 15.1349C39.4445 14.8684 38.8115 14.6338 38.1678 14.432C38.0759 14.406 37.9901 14.3618 37.9155 14.302C37.841 14.2423 37.7792 14.1681 37.7338 14.0841C37.6884 14 37.6604 13.9077 37.6513 13.8126C37.6422 13.7175 37.6523 13.6215 37.681 13.5304C37.7097 13.4392 37.7563 13.3548 37.8182 13.282C37.8801 13.2092 37.956 13.1496 38.0414 13.1067C38.1267 13.0637 38.2198 13.0383 38.3151 13.032C38.4105 13.0257 38.5061 13.0386 38.5964 13.0699C39.2861 13.2865 39.9643 13.538 40.6285 13.8234C40.78 13.8884 40.9043 14.0038 40.9805 14.15C41.0566 14.2962 41.0798 14.4643 41.0462 14.6256C41.0125 14.787 40.9241 14.9318 40.7959 15.0354C40.6677 15.139 40.5076 15.1951 40.3428 15.1942H40.3499Z" fill="#63C463"/>
<path d="M39.5085 21.1505H22.4578C22.2684 21.1505 22.0867 21.0753 21.9527 20.9413C21.8188 20.8074 21.7435 20.6257 21.7435 20.4363C21.7435 20.2468 21.8188 20.0651 21.9527 19.9312C22.0867 19.7972 22.2684 19.722 22.4578 19.722H39.5085C39.698 19.722 39.8796 19.7972 40.0136 19.9312C40.1476 20.0651 40.2228 20.2468 40.2228 20.4363C40.2228 20.6257 40.1476 20.8074 40.0136 20.9413C39.8796 21.0753 39.698 21.1505 39.5085 21.1505Z" fill="#63C463"/>
<path d="M39.5085 26.3769H22.4578C22.2684 26.3769 22.0867 26.3016 21.9527 26.1677C21.8188 26.0337 21.7435 25.852 21.7435 25.6626C21.7435 25.4732 21.8188 25.2915 21.9527 25.1575C22.0867 25.0236 22.2684 24.9483 22.4578 24.9483H39.5085C39.698 24.9483 39.8796 25.0236 40.0136 25.1575C40.1476 25.2915 40.2228 25.4732 40.2228 25.6626C40.2228 25.852 40.1476 26.0337 40.0136 26.1677C39.8796 26.3016 39.698 26.3769 39.5085 26.3769Z" fill="#63C463"/>
<path d="M39.5085 31.6033H22.4578C22.2684 31.6033 22.0867 31.528 21.9527 31.3941C21.8188 31.2601 21.7435 31.0784 21.7435 30.889C21.7435 30.6995 21.8188 30.5178 21.9527 30.3839C22.0867 30.2499 22.2684 30.1747 22.4578 30.1747H39.5085C39.698 30.1747 39.8796 30.2499 40.0136 30.3839C40.1476 30.5178 40.2228 30.6995 40.2228 30.889C40.2228 31.0784 40.1476 31.2601 40.0136 31.3941C39.8796 31.528 39.698 31.6033 39.5085 31.6033Z" fill="#63C463"/>
</svg>
