<svg width="60" height="60" viewBox="0 0 60 60" fill="none" xmlns="http://www.w3.org/2000/svg">
<path d="M56.5692 56.9277L53.9149 41.3883C53.6289 39.714 52.4412 38.3691 50.815 37.8785L43.6557 35.7184C43.5075 33.9683 42.79 32.3173 41.5958 31.0104C40.6406 29.9651 39.4392 29.2039 38.1149 28.7839C38.3415 28.5325 38.5516 28.2818 38.7444 28.0366C40.4469 25.8714 41.3584 23.4859 41.5904 21.858H42.1427C43.5792 21.858 44.7479 20.6895 44.7479 19.2529V17.9174C44.7479 16.9587 44.2086 16.09 43.3976 15.6391V12.4277C43.3976 11.9425 43.0042 11.5491 42.5189 11.5491C42.0336 11.5491 41.6403 11.9423 41.6403 12.4277V16.0329C41.2982 16.0923 40.8899 16.195 40.4722 16.3709C40.4294 16.3864 40.3878 16.4045 40.3485 16.4262C40.2541 16.4692 40.1597 16.5145 40.0656 16.5656V9.48492C40.0656 7.52871 38.4742 5.9373 36.518 5.9373H34.0928C33.2563 5.9373 32.4391 6.22875 31.7916 6.7582L31.5536 6.95273C31.1164 7.31016 30.5647 7.50703 30 7.50703C29.4353 7.50703 28.8834 7.31016 28.4463 6.95273L28.2084 6.7582C27.5609 6.22887 26.7437 5.9373 25.9072 5.9373H23.4818C21.5256 5.9373 19.9342 7.52871 19.9342 9.48492V16.5656C19.8401 16.5145 19.7456 16.4692 19.6513 16.4262C19.6119 16.4045 19.5704 16.3864 19.5277 16.3709C19.11 16.195 18.7016 16.0923 18.3595 16.0329V6.91699C18.3595 4.07191 20.6742 1.75723 23.5193 1.75723H36.4803C39.3255 1.75723 41.6401 4.07191 41.6401 6.91699V8.29816C41.6401 8.78344 42.0335 9.17684 42.5187 9.17684C43.0038 9.17684 43.3973 8.78355 43.3973 8.29816V6.91699C43.3973 3.10301 40.2943 0 36.4803 0H23.5193C19.7052 0 16.6023 3.10301 16.6023 6.91699V15.6393C15.7912 16.0901 15.2519 16.9587 15.2519 17.9175V19.253C15.2519 20.6896 16.4207 21.8582 17.8571 21.8582H18.4094C18.6414 23.486 19.553 25.8715 21.2555 28.0368C21.448 28.2817 21.658 28.5321 21.8844 28.7834C18.8399 29.7504 16.6196 32.4877 16.3441 35.7184L9.18468 37.8785C7.55847 38.3691 6.37066 39.714 6.08472 41.3883L5.00683 47.6987C4.92515 48.1771 5.24671 48.6309 5.72496 48.7126C6.20308 48.7945 6.65718 48.4729 6.73898 47.9945L7.81687 41.6841C7.98984 40.6711 8.70843 39.8576 9.69222 39.5609L16.3139 37.5629V39.3009C14.7961 39.5803 13.5046 40.6229 12.9727 42.0675C12.8314 42.4509 12.7437 42.8524 12.7118 43.2607L12.0718 51.475C12.0236 52.0937 12.2377 52.7099 12.6589 53.1652C13.0802 53.6205 13.6778 53.8819 14.2983 53.8819H15.3937C15.879 53.8819 16.2724 53.4886 16.2724 53.0032C16.2724 52.5178 15.879 52.1246 15.3937 52.1246H14.2983C14.166 52.1246 14.0387 52.0691 13.9488 51.9718C13.8591 51.8748 13.8135 51.7436 13.8238 51.6117L14.4637 43.3973C14.4831 43.15 14.5362 42.9068 14.6217 42.6746C14.9918 41.6698 15.9912 40.9893 17.1088 40.9814L17.2535 40.9804C17.2603 40.9802 17.267 40.9802 17.2737 40.9802C18.3599 40.9802 19.3214 41.5962 19.727 42.5537C19.8408 42.8222 19.9099 43.106 19.9327 43.3973L20.5728 51.6118C20.583 51.7436 20.5375 51.8748 20.4477 51.972C20.3579 52.069 20.2305 52.1246 20.0982 52.1246H19.0028C18.5175 52.1246 18.1241 52.5179 18.1241 53.0032C18.1241 53.4885 18.5175 53.8819 19.0028 53.8819H20.0982C20.7187 53.8819 21.3164 53.6207 21.7376 53.1652C22.159 52.7096 22.3731 52.0936 22.3248 51.4751L21.6846 43.2607C21.6471 42.78 21.5328 42.3114 21.345 41.868C20.7662 40.502 19.5286 39.5522 18.071 39.2952V37.0328L21.0914 36.1214C21.3662 36.7002 21.9108 37.9509 22.9895 40.6471C24.0766 43.3675 25.4279 46.8544 26.7239 50.2441C26.7332 50.2726 26.7438 50.3004 26.7558 50.3276C27.6206 52.5906 28.4596 54.8071 29.1771 56.7191C29.3058 57.062 29.6336 57.2891 29.9998 57.2891C30.366 57.2891 30.6937 57.062 30.8224 56.7191C31.5398 54.8071 32.3788 52.5906 33.2437 50.3276C33.2558 50.3004 33.2664 50.2725 33.2756 50.2441C34.5707 46.8564 35.9212 43.3717 37.0079 40.6521C38.088 37.9525 38.6331 36.7007 38.908 36.1214L41.9284 37.0328V42.2224C39.8357 42.6289 38.2505 44.4746 38.2505 46.6846C38.2505 49.1913 40.2899 51.2309 42.7967 51.2309C45.3036 51.2309 47.343 49.1914 47.343 46.6846C47.343 44.4819 45.7683 42.6407 43.6856 42.2262V37.563L50.3074 39.561C51.2912 39.8577 52.0097 40.6712 52.1828 41.6842L54.8371 57.2236C54.8811 57.4813 54.8126 57.7332 54.6439 57.933C54.4754 58.1327 54.2386 58.2429 53.9771 58.2429H6.02238C5.76093 58.2429 5.52421 58.1329 5.35558 57.933C5.18707 57.7332 5.11839 57.4814 5.16246 57.2236L6.03843 52.0952C6.12011 51.6169 5.79855 51.163 5.32031 51.0813C4.84218 50.9993 4.38808 51.3212 4.30628 51.7995L3.43031 56.9278C3.29964 57.6933 3.51187 58.4727 4.0125 59.0662C4.51335 59.6597 5.24589 60 6.02238 60H53.9771C54.7536 60 55.4863 59.6597 55.987 59.0661C56.4876 58.4726 56.6999 57.6932 56.5692 56.9277ZM41.6507 17.8229C42.1188 17.7062 42.4946 17.7083 42.4989 17.7084C42.6503 17.7104 42.7975 17.675 42.9282 17.6065C42.9674 17.7039 42.9905 17.8085 42.9905 17.9175V19.253C42.9905 19.7205 42.6101 20.1009 42.1425 20.1009H41.6507V17.8229ZM18.3489 20.1009H17.857C17.3894 20.1009 17.0091 19.7205 17.0091 19.253V17.9175C17.0091 17.8085 17.0323 17.7039 17.0713 17.6066C17.2019 17.6752 17.3491 17.7105 17.5007 17.7084C17.5073 17.7096 17.8821 17.7075 18.3489 17.8234V20.1009ZM20.1061 21.0861V18.7778C20.3723 18.8576 20.6635 18.8467 20.9324 18.7345C21.3935 18.5421 21.6914 18.0953 21.6914 17.5959V9.48492C21.6914 8.49774 22.4946 7.69453 23.4818 7.69453H25.907C26.3392 7.69453 26.7614 7.84512 27.096 8.11863L27.3339 8.31316C28.084 8.92652 29.0307 9.26414 29.9998 9.26414C30.9688 9.26414 31.9155 8.92641 32.6657 8.31316L32.9035 8.11863C33.238 7.84512 33.6603 7.69453 34.0925 7.69453H36.5177C37.5049 7.69453 38.3081 8.49774 38.3081 9.48492V17.5961C38.3081 18.0953 38.606 18.5422 39.0671 18.7346C39.2211 18.7989 39.3824 18.83 39.5422 18.83C39.6614 18.83 39.7796 18.8126 39.8934 18.7786V21.0861C39.8934 22.369 39.0066 24.8602 37.3629 26.9505C36.8184 27.643 36.1186 28.3869 35.2569 29.0371C35.2296 29.0554 35.2035 29.0752 35.1785 29.0962C33.8436 30.0832 32.1272 30.8393 29.9998 30.8393C27.8723 30.8393 26.1559 30.0832 24.8209 29.0961C24.7959 29.0752 24.7699 29.0554 24.7427 29.0372C23.8811 28.3869 23.1812 27.643 22.6366 26.9505C20.9931 24.8603 20.1061 22.369 20.1061 21.0861ZM35.756 35.2816L29.9998 39.5841L24.2435 35.2816C24.8143 34.5561 25.1341 33.6248 25.1341 32.7938V31.3774C26.4878 32.1054 28.103 32.5966 29.9998 32.5966C31.8966 32.5966 33.5119 32.1054 34.8654 31.3774V32.7938C34.8654 33.6248 35.1852 34.5561 35.756 35.2816ZM22.7771 34.3009C22.3079 34.1222 21.7877 34.0929 21.2957 34.2264C21.2741 34.2314 21.253 34.2371 21.2325 34.2432L18.197 35.1592C18.7104 32.6347 20.7602 30.6254 23.3769 30.2362V32.7938C23.3769 33.345 23.1308 33.9149 22.7771 34.3009ZM25.1618 41.3542C25.1602 41.3501 25.1585 41.346 25.157 41.342C25.1125 41.2294 25.0685 41.1183 25.0249 41.0085C25.0171 40.9886 25.0092 40.9688 25.0014 40.9491C24.9587 40.8416 24.9164 40.735 24.8747 40.6301C24.8718 40.6227 24.8688 40.6154 24.8659 40.6079C24.7357 40.2806 24.6102 39.9667 24.4895 39.6659C24.4807 39.6441 24.4719 39.6219 24.4631 39.6002C24.4284 39.514 24.3943 39.429 24.3605 39.3451C24.348 39.3143 24.3357 39.2838 24.3234 39.2534C24.2906 39.172 24.258 39.0912 24.2259 39.0121C24.2163 38.9884 24.2069 38.9654 24.1975 38.9419C24.1392 38.7982 24.0823 38.6582 24.0267 38.5216C24.0117 38.4847 23.9964 38.4471 23.9815 38.4107C23.9597 38.3575 23.9385 38.3057 23.9171 38.2535C23.8942 38.1973 23.8712 38.1415 23.8487 38.0866C23.8403 38.0661 23.8315 38.0445 23.823 38.0241C23.8162 38.0077 23.81 37.9925 23.8034 37.9762C23.7019 37.7297 23.6054 37.4973 23.5139 37.2788C23.5132 37.277 23.5124 37.2752 23.5117 37.2735C23.4629 37.1571 23.4152 37.0434 23.3694 36.9352C23.3456 36.879 23.3222 36.8238 23.2992 36.7697L28.2498 40.4698L26.1812 41.3486C26.1776 41.3501 26.1738 41.3516 26.1702 41.3532L25.3065 41.7202C25.2575 41.5963 25.2096 41.4749 25.1618 41.3542ZM27.2583 46.734C27.0847 46.2837 26.9099 45.8307 26.7347 45.3783C26.4607 44.6706 26.199 43.9977 25.9486 43.3567L26.2765 43.2173L27.6162 44.7746L27.2583 46.734ZM30.0168 53.8752C29.9916 53.8229 29.9616 53.7736 29.9269 53.7277C29.5298 52.6782 29.0259 51.3504 28.4682 49.8894L29.2885 45.3982H30.711L31.5313 49.8894C30.9469 51.42 30.422 52.804 30.0168 53.8752ZM31.0405 43.6411H28.959L27.9741 42.4962L29.9998 41.6357L32.0255 42.4962L31.0405 43.6411ZM33.2648 45.3783C33.0896 45.8307 32.9148 46.2837 32.7412 46.734L32.3834 44.7745L33.723 43.2172L34.0509 43.3566C33.8005 43.9976 33.5388 44.6706 33.2648 45.3783ZM36.6302 36.9352C36.5868 37.0378 36.5415 37.1455 36.4955 37.2554C36.4895 37.2697 36.4834 37.2841 36.4774 37.2986C36.4318 37.4075 36.3854 37.5189 36.3374 37.6348C36.3342 37.6424 36.3309 37.6505 36.3278 37.6582C36.2863 37.7582 36.2437 37.8613 36.2005 37.9664C36.1924 37.9861 36.1848 38.0043 36.1767 38.0241C36.1671 38.0476 36.1568 38.0726 36.1471 38.0964C36.1278 38.1432 36.1083 38.1911 36.0886 38.2389C36.0644 38.2978 36.0404 38.3565 36.0157 38.4169C36.0078 38.4361 35.9998 38.4561 35.9918 38.4755C35.9306 38.6254 35.8678 38.7798 35.8036 38.9385C35.7935 38.9633 35.7836 38.9877 35.7735 39.0129C35.7417 39.0913 35.7094 39.1713 35.6769 39.2518C35.6643 39.2834 35.6515 39.3148 35.6387 39.3466C35.6052 39.4297 35.5713 39.5139 35.5371 39.5992C35.5275 39.623 35.5178 39.6473 35.5082 39.6713C35.389 39.968 35.2653 40.2775 35.137 40.6C35.1328 40.6106 35.1286 40.6211 35.1244 40.6318C35.0829 40.736 35.0409 40.842 34.9985 40.9487C34.9907 40.9686 34.9827 40.9886 34.9747 41.0086C34.9309 41.119 34.8867 41.2305 34.8419 41.3439C34.8411 41.346 34.8403 41.3481 34.8395 41.3501C34.7912 41.4722 34.7427 41.595 34.6932 41.7204L33.8287 41.3531C33.8257 41.3518 33.8226 41.3505 33.8197 41.3493L31.75 40.47L36.7005 36.7699C36.6773 36.8238 36.6539 36.8789 36.6302 36.9352ZM38.767 34.2434C38.7669 34.2434 38.7667 34.2432 38.7666 34.2432C38.7659 34.243 38.765 34.2429 38.7643 34.2425C38.2546 34.0896 37.7108 34.1149 37.2225 34.3009C36.8687 33.9149 36.6227 33.345 36.6227 32.7938V30.235C39.2558 30.6231 41.2994 32.6135 41.8062 35.1602L38.767 34.2434ZM45.5858 46.6846C45.5858 48.2225 44.3346 49.4736 42.7967 49.4736C41.2589 49.4736 40.0077 48.2225 40.0077 46.6846C40.0077 45.1466 41.2589 43.8955 42.7967 43.8955C44.3346 43.8955 45.5858 45.1466 45.5858 46.6846Z" fill="#63C463"/>
</svg>
