<svg width="40" height="40" viewBox="0 0 40 40" fill="none" xmlns="http://www.w3.org/2000/svg">
<path d="M37.7128 37.9518L35.9433 27.5922C35.7526 26.476 34.9608 25.5794 33.8766 25.2523L29.1038 23.8123C29.005 22.6455 28.5266 21.5448 27.7305 20.6736C27.0937 19.9767 26.2928 19.4693 25.4099 19.1893C25.561 19.0216 25.7011 18.8545 25.8296 18.6911C26.9646 17.2476 27.5723 15.6573 27.727 14.572H28.0952C29.0528 14.572 29.832 13.793 29.832 12.8352V11.9449C29.832 11.3058 29.4724 10.7266 28.9317 10.4261V8.28516C28.9317 7.96164 28.6695 7.69938 28.3459 7.69938C28.0224 7.69938 27.7602 7.96156 27.7602 8.28516V10.6886C27.5321 10.7282 27.2599 10.7966 26.9815 10.9139C26.953 10.9243 26.9252 10.9363 26.899 10.9508C26.8361 10.9795 26.7731 11.0097 26.7104 11.0437V6.32328C26.7104 5.01914 25.6495 3.9582 24.3453 3.9582H22.7285C22.1709 3.9582 21.6261 4.1525 21.1944 4.50547L21.0357 4.63516C20.7443 4.87344 20.3765 5.00469 20 5.00469C19.6235 5.00469 19.2556 4.87344 18.9642 4.63516L18.8056 4.50547C18.3739 4.15258 17.8291 3.9582 17.2715 3.9582H15.6545C14.3504 3.9582 13.2895 5.01914 13.2895 6.32328V11.0437C13.2267 11.0097 13.1637 10.9795 13.1009 10.9508C13.0746 10.9363 13.047 10.9243 13.0184 10.9139C12.74 10.7966 12.4677 10.7282 12.2397 10.6886V4.61133C12.2397 2.71461 13.7828 1.17148 15.6795 1.17148H24.3202C26.217 1.17148 27.7601 2.71461 27.7601 4.61133V5.53211C27.7601 5.85562 28.0223 6.11789 28.3458 6.11789C28.6692 6.11789 28.9316 5.8557 28.9316 5.53211V4.61133C28.9316 2.06867 26.8629 0 24.3202 0H15.6795C13.1368 0 11.0682 2.06867 11.0682 4.61133V10.4262C10.5275 10.7267 10.168 11.3058 10.168 11.945V12.8353C10.168 13.793 10.9471 14.5721 11.9048 14.5721H12.273C12.4276 15.6573 13.0353 17.2477 14.1703 18.6912C14.2987 18.8545 14.4387 19.0214 14.5896 19.1889C12.5599 19.8336 11.0798 21.6584 10.8961 23.8123L6.12312 25.2523C5.03898 25.5794 4.24711 26.476 4.05648 27.5922L3.33789 31.7991C3.28343 32.118 3.49781 32.4206 3.81664 32.4751C4.13539 32.5297 4.43812 32.3152 4.49265 31.9963L5.21125 27.7894C5.32656 27.1141 5.80562 26.5717 6.46148 26.3739L10.8759 25.042V26.2006C9.86406 26.3869 9.00304 27.082 8.64844 28.045C8.55429 28.3006 8.49578 28.5683 8.47453 28.8405L8.04789 34.3166C8.0157 34.7291 8.15843 35.1399 8.43929 35.4434C8.72015 35.747 9.11851 35.9212 9.53219 35.9212H10.2625C10.586 35.9212 10.8483 35.6591 10.8483 35.3355C10.8483 35.0119 10.586 34.7498 10.2625 34.7498H9.53219C9.44398 34.7498 9.35914 34.7127 9.29922 34.6479C9.23937 34.5832 9.20898 34.4957 9.21586 34.4078L9.6425 28.9316C9.65539 28.7666 9.69078 28.6045 9.74781 28.4498C9.99453 27.7798 10.6608 27.3262 11.4059 27.3209L11.5023 27.3202C11.5069 27.3202 11.5113 27.3202 11.5158 27.3202C12.2399 27.3202 12.8809 27.7308 13.1513 28.3691C13.2272 28.5481 13.2733 28.7373 13.2884 28.9316L13.7152 34.4079C13.722 34.4957 13.6916 34.5832 13.6318 34.648C13.572 34.7127 13.487 34.7498 13.3988 34.7498H12.6685C12.345 34.7498 12.0827 35.012 12.0827 35.3355C12.0827 35.659 12.345 35.9212 12.6685 35.9212H13.3988C13.8125 35.9212 14.2109 35.7471 14.4917 35.4434C14.7727 35.1398 14.9154 34.7291 14.8832 34.3167L14.4564 28.8405C14.4314 28.52 14.3552 28.2076 14.23 27.912C13.8441 27.0013 13.0191 26.3681 12.0473 26.1968V24.6885L14.0609 24.0809C14.2441 24.4668 14.6072 25.3006 15.3263 27.098C16.0511 28.9116 16.952 31.2362 17.8159 33.4961C17.8221 33.5151 17.8292 33.5336 17.8372 33.5517C18.4137 35.0604 18.973 36.538 19.4514 37.8127C19.5372 38.0413 19.7557 38.1927 19.9998 38.1927C20.244 38.1927 20.4625 38.0413 20.5483 37.8127C21.0266 36.538 21.5859 35.0604 22.1625 33.5517C22.1705 33.5336 22.1776 33.515 22.1838 33.4961C23.0471 31.2376 23.9475 28.9145 24.672 27.1014C25.392 25.3016 25.7554 24.4671 25.9387 24.0809L27.9523 24.6885V28.1483C26.5571 28.4193 25.5003 29.6498 25.5003 31.123C25.5003 32.7942 26.8599 34.1539 28.5312 34.1539C30.2024 34.1539 31.562 32.7943 31.562 31.123C31.562 29.6546 30.5122 28.4271 29.1237 28.1508V25.042L33.5383 26.374C34.1941 26.5718 34.6731 27.1141 34.7885 27.7895L36.558 38.1491C36.5874 38.3209 36.5417 38.4888 36.4293 38.622C36.317 38.7552 36.1591 38.8286 35.9848 38.8286H4.01492C3.84062 38.8286 3.68281 38.7552 3.57039 38.622C3.45804 38.4888 3.41226 38.3209 3.44164 38.1491L4.02562 34.7302C4.08007 34.4113 3.8657 34.1087 3.54687 34.0542C3.22812 33.9995 2.92539 34.2141 2.87086 34.533L2.28687 37.9519C2.19976 38.4622 2.34125 38.9818 2.675 39.3775C3.0089 39.7731 3.49726 40 4.01492 40H35.9848C36.5024 40 36.9909 39.7731 37.3247 39.3774C37.6584 38.9817 37.7999 38.4621 37.7128 37.9518ZM27.7671 11.882C28.0792 11.8041 28.3298 11.8055 28.3326 11.8056C28.4335 11.807 28.5316 11.7834 28.6188 11.7377C28.6449 11.8026 28.6603 11.8723 28.6603 11.945V12.8353C28.6603 13.147 28.4067 13.4006 28.095 13.4006H27.7671V11.882ZM12.2326 13.4006H11.9047C11.593 13.4006 11.3394 13.147 11.3394 12.8353V11.945C11.3394 11.8723 11.3548 11.8026 11.3809 11.7377C11.468 11.7834 11.5661 11.807 11.6671 11.8056C11.6716 11.8064 11.9214 11.805 12.2326 11.8823V13.4006ZM13.4041 14.0574V12.5185C13.5816 12.5717 13.7757 12.5645 13.9549 12.4897C14.2623 12.3614 14.4609 12.0635 14.4609 11.7306V6.32328C14.4609 5.66516 14.9964 5.12969 15.6545 5.12969H17.2713C17.5595 5.12969 17.8409 5.23008 18.064 5.41242L18.2226 5.54211C18.7227 5.95102 19.3538 6.17609 19.9998 6.17609C20.6459 6.17609 21.277 5.95094 21.7771 5.54211L21.9357 5.41242C22.1587 5.23008 22.4402 5.12969 22.7284 5.12969H24.3452C25.0033 5.12969 25.5387 5.66516 25.5387 6.32328V11.7307C25.5387 12.0635 25.7373 12.3615 26.0448 12.4898C26.1474 12.5326 26.2549 12.5534 26.3615 12.5534C26.4409 12.5534 26.5198 12.5417 26.5956 12.5191V14.0574C26.5956 14.9127 26.0044 16.5734 24.9086 17.967C24.5456 18.4287 24.0791 18.9246 23.5046 19.358C23.4864 19.3702 23.469 19.3834 23.4523 19.3975C22.5624 20.0555 21.4181 20.5595 19.9998 20.5595C18.5816 20.5595 17.4373 20.0555 16.5473 19.3974C16.5306 19.3834 16.5133 19.3702 16.4952 19.3581C15.9207 18.9246 15.4541 18.4287 15.0911 17.967C13.9954 16.5735 13.4041 14.9127 13.4041 14.0574ZM23.8373 23.5211L19.9998 26.3894L16.1623 23.5211C16.5429 23.0374 16.7561 22.4166 16.7561 21.8625V20.9183C17.6585 21.4036 18.7353 21.7311 19.9998 21.7311C21.2644 21.7311 22.3412 21.4036 23.2436 20.9183V21.8625C23.2436 22.4166 23.4568 23.0374 23.8373 23.5211ZM15.1848 22.8673C14.872 22.7481 14.5252 22.7286 14.1971 22.8176C14.1827 22.8209 14.1687 22.8248 14.155 22.8288L12.1313 23.4395C12.4736 21.7565 13.8402 20.417 15.5846 20.1575V21.8625C15.5846 22.23 15.4205 22.6099 15.1848 22.8673ZM16.7745 27.5695C16.7734 27.5667 16.7723 27.564 16.7713 27.5613C16.7416 27.4862 16.7123 27.4122 16.6833 27.339C16.678 27.3257 16.6728 27.3125 16.6676 27.2994C16.6391 27.2277 16.6109 27.1566 16.5831 27.0867C16.5812 27.0818 16.5792 27.077 16.5773 27.072C16.4905 26.8538 16.4068 26.6445 16.3263 26.4439C16.3205 26.4294 16.3146 26.4146 16.3087 26.4002C16.2856 26.3427 16.2629 26.286 16.2403 26.2301C16.232 26.2095 16.2238 26.1892 16.2156 26.1689C16.1937 26.1147 16.172 26.0608 16.1506 26.008C16.1442 25.9923 16.138 25.977 16.1316 25.9612C16.0928 25.8655 16.0548 25.7721 16.0178 25.6811C16.0078 25.6565 15.9976 25.6314 15.9877 25.6071C15.9731 25.5716 15.959 25.5371 15.9448 25.5023C15.9295 25.4648 15.9141 25.4277 15.8991 25.3911C15.8935 25.3774 15.8877 25.363 15.882 25.3494C15.8775 25.3384 15.8734 25.3284 15.8689 25.3175C15.8012 25.1531 15.737 24.9982 15.6759 24.8525C15.6755 24.8513 15.6749 24.8502 15.6745 24.849C15.642 24.7714 15.6102 24.6956 15.5796 24.6234C15.5637 24.586 15.5481 24.5492 15.5328 24.5131L18.8332 26.9798L17.4541 27.5657C17.4517 27.5667 17.4492 27.5677 17.4468 27.5688L16.871 27.8134C16.8384 27.7309 16.8064 27.6499 16.7745 27.5695ZM18.1722 31.156C18.0565 30.8558 17.9399 30.5538 17.8231 30.2522C17.6405 29.7804 17.466 29.3318 17.2991 28.9045L17.5177 28.8116L18.4108 29.8498L18.1722 31.156ZM20.0112 35.9168C19.9944 35.882 19.9744 35.8491 19.9512 35.8184C19.6866 35.1188 19.3506 34.2336 18.9788 33.2596L19.5257 30.2655H20.474L21.0209 33.2596C20.6312 34.28 20.2813 35.2027 20.0112 35.9168ZM20.6937 29.0941H19.306L18.6494 28.3308L19.9998 27.7571L21.3503 28.3308L20.6937 29.0941ZM22.1766 30.2522C22.0598 30.5538 21.9432 30.8558 21.8275 31.156L21.5889 29.8497L22.482 28.8115L22.7006 28.9044C22.5337 29.3317 22.3592 29.7804 22.1766 30.2522ZM24.4202 24.6234C24.3912 24.6919 24.361 24.7637 24.3303 24.837C24.3263 24.8465 24.3223 24.8561 24.3183 24.8657C24.2879 24.9384 24.257 25.0126 24.2249 25.0898C24.2228 25.0949 24.2206 25.1003 24.2185 25.1055C24.1909 25.1721 24.1625 25.2409 24.1337 25.3109C24.1283 25.3241 24.1232 25.3362 24.1178 25.3494C24.1114 25.3651 24.1045 25.3817 24.098 25.3976C24.0852 25.4288 24.0722 25.4607 24.0591 25.4926C24.043 25.5319 24.027 25.571 24.0105 25.6112C24.0052 25.6241 23.9998 25.6374 23.9945 25.6503C23.9537 25.7502 23.9119 25.8532 23.8691 25.959C23.8623 25.9755 23.8557 25.9918 23.849 26.0086C23.8278 26.0609 23.8062 26.1142 23.7846 26.1679C23.7762 26.1889 23.7677 26.2098 23.7591 26.2311C23.7368 26.2865 23.7142 26.3426 23.6914 26.3995C23.685 26.4153 23.6785 26.4316 23.6721 26.4475C23.5927 26.6453 23.5102 26.8516 23.4247 27.0666C23.4219 27.0737 23.4191 27.0807 23.4162 27.0879C23.3886 27.1573 23.3606 27.228 23.3323 27.2991C23.3271 27.3124 23.3218 27.3257 23.3165 27.3391C23.2873 27.4127 23.2578 27.487 23.228 27.5626C23.2274 27.564 23.2269 27.5654 23.2263 27.5667C23.1941 27.6481 23.1618 27.73 23.1288 27.8136L22.5525 27.5688C22.5505 27.5679 22.5484 27.567 22.5465 27.5662L21.1666 26.98L24.467 24.5133C24.4516 24.5492 24.4359 24.5859 24.4202 24.6234ZM25.8447 22.8289C25.8446 22.8289 25.8444 22.8288 25.8444 22.8288C25.8439 22.8287 25.8434 22.8286 25.8429 22.8284C25.503 22.7264 25.1405 22.7433 24.815 22.8673C24.5791 22.6099 24.4152 22.23 24.4152 21.8625V20.1566C26.1705 20.4154 27.533 21.7423 27.8708 23.4402L25.8447 22.8289ZM30.3905 31.123C30.3905 32.1484 29.5564 32.9824 28.5312 32.9824C27.5059 32.9824 26.6718 32.1484 26.6718 31.123C26.6718 30.0977 27.5059 29.2637 28.5312 29.2637C29.5564 29.2637 30.3905 30.0977 30.3905 31.123Z" fill="#465C79"/>
</svg>
