<svg width="50" height="50" viewBox="0 0 50 50" fill="none" xmlns="http://www.w3.org/2000/svg">
<g clip-path="url(#clip0)">
<path d="M39.27 43.9354C39.1307 43.9355 38.9945 43.8949 38.878 43.8185C38.7615 43.7422 38.6699 43.6335 38.6144 43.5057C38.5589 43.378 38.542 43.2368 38.5657 43.0996C38.5894 42.9623 38.6527 42.835 38.7479 42.7333C39.2252 42.2213 39.6681 41.6782 40.0736 41.1076C40.1851 40.958 40.3508 40.858 40.5351 40.829C40.7194 40.8 40.9077 40.8442 41.0598 40.9523C41.2119 41.0604 41.3157 41.2236 41.349 41.4072C41.3823 41.5908 41.3424 41.7802 41.2379 41.9347C40.7956 42.5571 40.3126 43.1496 39.7921 43.7083C39.7253 43.7799 39.6445 43.8371 39.5547 43.8761C39.4649 43.9152 39.368 43.9354 39.27 43.9354Z" fill="#63C463"/>
<path d="M25.4771 49.9999C20.3185 49.994 15.3729 47.9422 11.7252 44.2945C8.07757 40.6468 6.02574 35.7012 6.01988 30.5427C6.00131 30.2877 5.57988 23.1283 9.78061 17.9712C9.87832 17.8514 10.0123 17.7666 10.1623 17.7294C10.3123 17.6922 10.4704 17.7047 10.6127 17.765C10.755 17.8253 10.874 17.9302 10.9516 18.0638C11.0293 18.1974 11.0615 18.3527 11.0435 18.5062C10.707 21.3498 11.1992 23.5612 12.467 24.9026C12.7534 25.205 13.1141 25.4269 13.513 25.5462C13.912 25.6655 14.3353 25.6781 14.7406 25.5826C15.1295 25.5053 15.4913 25.3272 15.7899 25.0662C16.0885 24.8053 16.3133 24.4706 16.4421 24.0955C17.2021 21.8305 16.2856 18.9648 16.2763 18.9362C16.2677 18.9103 16.2607 18.8838 16.2556 18.8569C14.7906 11.5712 22.3192 7.3033 22.3985 7.26115C25.7178 5.47543 24.7914 0.908275 24.7821 0.862561C24.7553 0.7366 24.7631 0.60575 24.8046 0.483857C24.8462 0.361965 24.9199 0.253563 25.0179 0.170122C25.116 0.0866822 25.2348 0.0313074 25.3618 0.00985756C25.4888 -0.0115923 25.6192 0.00168084 25.7392 0.0482722C31.1607 2.15114 30.4178 8.6483 29.2521 11.8497C28.1842 18.0712 31.9964 20.0291 32.7328 20.3455C33.3389 20.355 33.9398 20.2322 34.4935 19.9854C35.0472 19.7387 35.5404 19.374 35.9386 18.9169C37.8136 16.6912 37.22 12.5969 37.2136 12.5562C37.1908 12.4079 37.2154 12.2561 37.2838 12.1226C37.3522 11.989 37.4609 11.8804 37.5945 11.8121C37.7281 11.7438 37.8798 11.7193 38.0281 11.7421C38.1764 11.7648 38.3138 11.8338 38.4207 11.939C44.73 18.1383 44.9286 30.0298 44.9343 30.5334C44.9395 32.6531 44.5934 34.759 43.91 36.7655C43.8472 36.9429 43.7169 37.0883 43.5475 37.1702C43.3781 37.2521 43.1833 37.2638 43.0053 37.2028C42.8273 37.1419 42.6805 37.0131 42.5969 36.8446C42.5132 36.676 42.4995 36.4813 42.5586 36.3027C43.19 34.4481 43.51 32.5018 43.5057 30.5427C43.5057 30.4419 43.3357 20.5519 38.735 14.464C38.6936 16.0712 38.3571 18.2605 37.0343 19.8348C36.4882 20.4651 35.8091 20.9664 35.0459 21.3025C34.2826 21.6386 33.4543 21.8011 32.6207 21.7783C32.5345 21.7785 32.4489 21.7648 32.3671 21.7376C32.3078 21.7162 26.4499 19.5433 27.8521 11.5412C27.8593 11.4985 27.8706 11.4567 27.8857 11.4162C28.3622 10.0118 28.6177 8.54185 28.6428 7.05901C28.6464 4.68829 27.8692 2.97542 26.3307 1.94971C26.4021 3.76971 26.0514 6.91329 23.0799 8.51259C22.8157 8.66044 16.4235 12.3033 17.6513 18.5348C17.7799 18.9483 18.6621 21.9755 17.7999 24.5469C17.5936 25.1569 17.231 25.7022 16.7483 26.1283C16.2655 26.5545 15.6794 26.8466 15.0485 26.9755C14.4019 27.1251 13.7275 27.1025 13.0924 26.91C12.4573 26.7175 11.8838 26.3618 11.4292 25.8784C10.2219 24.5027 9.54998 22.7386 9.53632 20.9083C8.05762 23.8812 7.34067 27.1749 7.44989 30.4934C7.44552 35.2805 9.34179 39.8735 12.722 43.2633C16.1023 46.653 20.69 48.5622 25.4771 48.5713C26.4758 48.5727 27.4729 48.49 28.4578 48.3241C28.6446 48.2924 28.8363 48.3362 28.9909 48.4458C29.1454 48.5555 29.25 48.722 29.2817 48.9088C29.3135 49.0956 29.2697 49.2873 29.1601 49.4418C29.0504 49.5964 28.8839 49.701 28.6971 49.7327C27.6331 49.9117 26.556 50.0011 25.4771 49.9999Z" fill="#63C463"/>
<path d="M33.5921 48.1569C33.4302 48.1576 33.2728 48.1032 33.1459 48.0027C33.0189 47.9022 32.9298 47.7615 32.8933 47.6038C32.8568 47.446 32.8749 47.2805 32.9448 47.1344C33.0147 46.9883 33.1321 46.8703 33.2778 46.7997C33.8832 46.5075 34.472 46.182 35.0414 45.8247C35.2015 45.7233 35.3953 45.6896 35.5802 45.7311C35.7652 45.7725 35.926 45.8857 36.0275 46.0458C36.1289 46.2059 36.1626 46.3997 36.1212 46.5846C36.0797 46.7696 35.9665 46.9304 35.8064 47.0319C35.1935 47.417 34.5599 47.7683 33.9085 48.084C33.8102 48.1327 33.7018 48.1576 33.5921 48.1569Z" fill="#63C463"/>
<path d="M21.6699 35.1286C20.7699 35.1286 20.0439 34.8106 19.4919 34.1746C18.9399 33.5386 18.6639 32.7046 18.6639 31.6726C18.6639 30.6406 18.9399 29.8066 19.4919 29.1706C20.0439 28.5346 20.7699 28.2166 21.6699 28.2166C22.5699 28.2166 23.2959 28.5346 23.8479 29.1706C24.4119 29.7946 24.6939 30.6286 24.6939 31.6726C24.6939 32.7166 24.4119 33.5566 23.8479 34.1926C23.2959 34.8166 22.5699 35.1286 21.6699 35.1286ZM29.2299 28.3426H30.9939L22.3899 40.9426H20.6259L29.2299 28.3426ZM21.6699 33.8686C22.1619 33.8686 22.5399 33.6766 22.8039 33.2926C23.0799 32.9086 23.2179 32.3686 23.2179 31.6726C23.2179 30.9766 23.0799 30.4366 22.8039 30.0526C22.5399 29.6686 22.1619 29.4766 21.6699 29.4766C21.2019 29.4766 20.8239 29.6746 20.5359 30.0706C20.2599 30.4546 20.1219 30.9886 20.1219 31.6726C20.1219 32.3566 20.2599 32.8966 20.5359 33.2926C20.8239 33.6766 21.2019 33.8686 21.6699 33.8686ZM29.9319 41.0686C29.0319 41.0686 28.3059 40.7506 27.7539 40.1146C27.2019 39.4786 26.9259 38.6446 26.9259 37.6126C26.9259 36.5806 27.2019 35.7466 27.7539 35.1106C28.3059 34.4746 29.0319 34.1566 29.9319 34.1566C30.8319 34.1566 31.5579 34.4746 32.1099 35.1106C32.6739 35.7466 32.9559 36.5806 32.9559 37.6126C32.9559 38.6446 32.6739 39.4786 32.1099 40.1146C31.5579 40.7506 30.8319 41.0686 29.9319 41.0686ZM29.9319 39.8086C30.4119 39.8086 30.7899 39.6166 31.0659 39.2326C31.3419 38.8366 31.4799 38.2966 31.4799 37.6126C31.4799 36.9286 31.3419 36.3946 31.0659 36.0106C30.7899 35.6146 30.4119 35.4166 29.9319 35.4166C29.4519 35.4166 29.0739 35.6086 28.7979 35.9926C28.5219 36.3766 28.3839 36.9166 28.3839 37.6126C28.3839 38.3086 28.5219 38.8486 28.7979 39.2326C29.0739 39.6166 29.4519 39.8086 29.9319 39.8086Z" fill="#63C463"/>
</g>
<defs>
<clipPath id="clip0">
<rect width="50" height="50" fill="white" transform="translate(0 -0.00012207)"/>
</clipPath>
</defs>
</svg>
