<svg width="43" height="60" viewBox="0 0 43 60" fill="none" xmlns="http://www.w3.org/2000/svg">
<g clip-path="url(#clip0)">
<path d="M35.0006 0.839287C34.3192 0.290041 33.4289 0 32.4262 0C32.0438 0 31.6504 0.0433555 31.257 0.128907L5.7308 5.69139H4.8368C2.16986 5.69139 0 7.86125 0 10.5282V55.1632C0 57.8301 2.16986 59.9998 4.8368 59.9998H37.7781C40.4465 59.9998 42.6172 57.8301 42.6172 55.1632V10.5282C42.6172 7.86125 40.4474 5.69139 37.7804 5.69139H36.193V3.36318C36.1928 2.35557 35.7694 1.45925 35.0006 0.839287ZM31.6335 1.85571C32.508 1.66281 33.3756 1.80029 33.8912 2.21507C34.2404 2.49514 34.4252 2.89206 34.4252 3.36295V5.69116H14.033L31.6335 1.85571ZM37.7802 7.45922C39.4725 7.45922 40.8494 8.83593 40.8494 10.5282V55.1632C40.8494 56.8555 39.4718 58.2322 37.7781 58.2322H4.8368C3.14455 58.2322 1.7676 56.8555 1.7676 55.1632V10.5282C1.7676 8.83593 3.14431 7.45922 4.8368 7.45922H37.7802Z" fill="#63C463"/>
<path d="M21.3087 47.2098C29.7452 47.201 36.6162 40.3298 36.6253 31.8931C36.6253 23.4476 29.7542 16.5765 21.3087 16.5765C12.8632 16.5765 5.99219 23.4473 5.99219 31.8931C5.99219 40.3388 12.863 47.2098 21.3087 47.2098ZM21.3087 18.3339C28.7775 18.3421 34.86 24.4246 34.8679 31.8928C34.8679 39.3697 28.7853 45.4522 21.3087 45.4522C13.8321 45.4522 7.74959 39.3697 7.74959 31.8931C7.74959 24.4165 13.8321 18.3339 21.3087 18.3339Z" fill="#63C463"/>
<path d="M20.1975 40.5461H22.4188C23.5157 40.5461 24.4081 39.6538 24.4081 38.5569V34.9932H27.9718C29.0687 34.9932 29.9613 34.1008 29.9613 33.0039V30.7828C29.9613 29.6859 29.0689 28.7933 27.972 28.7933H24.4083V25.2296C24.4083 24.1327 23.5159 23.2404 22.4191 23.2404H20.1977C19.1009 23.2404 18.2082 24.1327 18.2082 25.2296V28.7933H14.6445C13.5477 28.7933 12.6553 29.6857 12.6553 30.7826V33.0039C12.6553 34.1008 13.5477 34.9932 14.6445 34.9932H18.2082V38.5569C18.2082 39.654 19.1006 40.5461 20.1975 40.5461ZM14.4127 33.2358V30.551H19.087C19.5715 30.551 19.9659 30.1568 19.9659 29.672V24.9978H22.6509V29.672C22.6509 30.1568 23.045 30.551 23.5298 30.551H28.2041V33.2358H23.5298C23.0453 33.2358 22.6509 33.6299 22.6509 34.1145V38.7887H19.9657V34.1145C19.9657 33.6299 19.5715 33.2358 19.0867 33.2358H14.4127Z" fill="#63C463"/>
</g>
<defs>
<clipPath id="clip0">
<rect width="42.617" height="60" fill="white"/>
</clipPath>
</defs>
</svg>
