<svg width="40" height="40" viewBox="0 0 40 40" fill="none" xmlns="http://www.w3.org/2000/svg">
<path d="M29.3337 0.559525C28.8795 0.193361 28.2859 0 27.6174 0C27.3626 0 27.1003 0.0289036 26.838 0.0859381L9.82053 3.79426H9.22453C7.44657 3.79426 6 5.24083 6 7.01879V36.7755C6 38.5534 7.44657 39.9999 9.22453 39.9999H31.1854C32.9643 39.9999 34.4115 38.5534 34.4115 36.7755V7.01879C34.4115 5.24083 32.9649 3.79426 31.187 3.79426H30.1287V2.24212C30.1285 1.57038 29.8463 0.972831 29.3337 0.559525ZM27.089 1.23714C27.672 1.10854 28.2504 1.2002 28.5941 1.47671C28.8269 1.66343 28.9501 1.92804 28.9501 2.24196V3.7941H15.3553L27.089 1.23714ZM31.1868 4.97282C32.315 4.97282 33.2329 5.89062 33.2329 7.01879V36.7755C33.2329 37.9036 32.3145 38.8214 31.1854 38.8214H9.22453C8.09636 38.8214 7.1784 37.9036 7.1784 36.7755V7.01879C7.1784 5.89062 8.09621 4.97282 9.22453 4.97282H31.1868Z" fill="#465C79"/>
<path d="M20.2052 31.4732C25.8295 31.4674 30.4102 26.8865 30.4162 21.262C30.4162 15.6317 25.8355 11.051 20.2052 11.051C14.5748 11.051 9.99414 15.6316 9.99414 21.262C9.99414 26.8925 14.5747 31.4732 20.2052 31.4732ZM20.2052 12.2226C25.1843 12.228 29.2393 16.283 29.2446 21.2619C29.2446 26.2465 25.1896 30.3015 20.2052 30.3015C15.2208 30.3015 11.1657 26.2465 11.1657 21.262C11.1657 16.2776 15.2208 12.2226 20.2052 12.2226Z" fill="#465C79"/>
<path d="M19.4657 27.0308H20.9465C21.6778 27.0308 22.2727 26.4359 22.2727 25.7047V23.3289H24.6485C25.3798 23.3289 25.9748 22.7339 25.9748 22.0027V20.522C25.9748 19.7907 25.3799 19.1956 24.6487 19.1956H22.2729V16.8198C22.2729 16.0886 21.6779 15.4937 20.9467 15.4937H19.4658C18.7346 15.4937 18.1395 16.0886 18.1395 16.8198V19.1956H15.7637C15.0324 19.1956 14.4375 19.7906 14.4375 20.5218V22.0027C14.4375 22.7339 15.0324 23.3289 15.7637 23.3289H18.1395V25.7047C18.1395 26.4361 18.7344 27.0308 19.4657 27.0308ZM15.6091 22.1573V20.3674H18.7253C19.0483 20.3674 19.3112 20.1046 19.3112 19.7814V16.6653H21.1013V19.7814C21.1013 20.1046 21.364 20.3674 21.6872 20.3674H24.8034V22.1573H21.6872C21.3642 22.1573 21.1013 22.42 21.1013 22.7431V25.8592H19.3111V22.7431C19.3111 22.42 19.0483 22.1573 18.7251 22.1573H15.6091Z" fill="#465C79"/>
</svg>
