<svg width="40" height="40" viewBox="0 0 40 40" fill="none" xmlns="http://www.w3.org/2000/svg">
<g clip-path="url(#clip0)">
<path d="M9.91895 29.7375C9.91895 30.8607 10.8328 31.7745 11.956 31.7745C13.0792 31.7745 13.993 30.8607 13.993 29.7375C13.993 28.6142 13.0792 27.7004 11.956 27.7004C10.8328 27.7004 9.91895 28.6142 9.91895 29.7375ZM12.8212 29.7375C12.8212 30.2145 12.4331 30.6026 11.9561 30.6026C11.479 30.6026 11.0908 30.2145 11.0908 29.7375C11.0908 29.2604 11.4789 28.8722 11.9561 28.8722C12.4332 28.8722 12.8212 29.2604 12.8212 29.7375Z" fill="#465C79"/>
<path d="M35.5377 17.1384C36.8377 16.3976 36.8393 14.5238 35.5377 13.782C35.249 13.6175 35.0851 13.2738 35.1816 12.9195C35.5763 11.478 34.2552 10.1506 32.8066 10.547C32.4719 10.6387 32.1179 10.492 31.946 10.1904C31.2052 8.8904 29.3313 8.88892 28.5897 10.1904C28.4178 10.492 28.0639 10.6387 27.7272 10.5465C26.3211 10.1616 24.9576 11.4268 25.3546 12.9215C25.4463 13.2563 25.2997 13.6102 24.998 13.7821C23.698 14.523 23.6965 16.3968 24.998 17.1384C25.2997 17.3104 25.4463 17.6642 25.3541 18.0009C24.9594 19.4424 26.2807 20.77 27.7291 20.3735C28.064 20.2819 28.4179 20.4285 28.5897 20.7301C29.3305 22.0302 31.2044 22.0316 31.946 20.7301C32.1179 20.4284 32.4716 20.2818 32.8085 20.374C34.2482 20.7683 35.5791 19.4488 35.1811 17.9991C35.0895 17.6642 35.2361 17.3103 35.5377 17.1384ZM34.9576 16.1203C34.2034 16.5501 33.8127 17.441 34.0514 18.3105C34.2064 18.8767 33.688 19.3999 33.1162 19.2433C32.2647 19.0101 31.365 19.3831 30.928 20.1499C30.6366 20.6613 29.8995 20.6617 29.6079 20.1499C29.172 19.385 28.2733 19.0095 27.4177 19.2438C26.8516 19.3988 26.3283 18.8806 26.4849 18.3086C26.718 17.4573 26.3452 16.5574 25.5783 16.1203C25.067 15.829 25.0664 15.092 25.5783 14.8002C26.3452 14.3632 26.718 13.4633 26.4869 12.6193C26.327 12.0172 26.866 11.5258 27.4196 11.6774C28.2709 11.9103 29.1708 11.5376 29.6078 10.7707C29.8992 10.2593 30.6363 10.2589 30.9279 10.7707C31.365 11.5377 32.2649 11.9103 33.118 11.6769C33.6804 11.5227 34.2081 12.0354 34.0509 12.6121C33.8178 13.4635 34.1906 14.3634 34.9575 14.8004C35.4688 15.0917 35.4695 15.8286 34.9576 16.1203Z" fill="#465C79"/>
<path d="M37.7264 9.65224C37.5274 9.39708 37.1593 9.35146 36.9041 9.55052C36.6489 9.74951 36.6034 10.1177 36.8023 10.3729C37.9452 11.8383 38.5492 13.5975 38.5492 15.4601C38.5492 20.0263 34.8344 23.7411 30.2683 23.7411C25.8039 23.7411 22.1407 20.1738 21.9925 15.74C23.6916 14.0396 23.6298 14.1095 23.7245 13.9936C23.7445 13.9581 24.1638 13.5113 24.1638 12.7582C24.1638 11.7054 23.4032 11.2356 23.2617 11.0455C24.774 8.64982 27.4194 7.17927 30.2684 7.17927C32.0785 7.17927 33.7979 7.75279 35.2406 8.83794C35.4993 9.03248 35.8666 8.98044 36.0611 8.72185C36.2556 8.46326 36.2036 8.09591 35.945 7.90138C34.2976 6.6624 32.3346 6.00747 30.2684 6.00747C27.105 6.00747 24.1625 7.59654 22.4158 10.1997L22.0045 9.78833C21.3857 9.16959 20.4523 9.05271 19.7146 9.4374L12.4413 2.16412C11.3601 1.08302 9.67984 0.958491 8.45984 1.78919L7.30649 0.635835C6.45891 -0.211743 5.08711 -0.211821 4.23945 0.635835L2.68969 2.18552C1.84211 3.0331 1.84203 4.40498 2.68969 5.25255L3.84258 6.40544C3.13891 7.43482 3.12078 8.78763 3.77555 9.83138C1.51773 12.3772 0.279297 15.6242 0.279297 19.0303C0.279297 20.912 0.652734 22.7395 1.38922 24.4621C1.51641 24.7596 1.86063 24.8976 2.15828 24.7704C2.45586 24.6433 2.59391 24.2989 2.46672 24.0013C1.79281 22.4251 1.45117 20.7526 1.45117 19.0302C1.45117 15.9627 2.5482 13.0353 4.55227 10.7215L7.6043 13.7736C6.40555 15.2649 5.75141 17.1107 5.75141 19.0302C5.75141 21.7238 7.05649 24.2456 9.21172 25.8161C8.20078 26.6044 7.97086 27.3499 6.66734 29.2802C5.45719 28.3964 4.42164 27.316 3.58344 26.0618C3.40367 25.7928 3.03984 25.7204 2.7707 25.9003C2.50164 26.0801 2.4293 26.444 2.60914 26.713C3.53742 28.102 4.68836 29.2951 6.03438 30.2678L4.05219 33.3605C2.26727 33.5278 0.865469 35.034 0.865469 36.8619V38.1592C0.865547 39.1744 1.69133 40.0001 2.70641 40.0001H29.5596C30.8463 40.0001 31.8931 38.9533 31.8931 37.6666C31.8931 35.2834 29.9542 33.3446 27.5711 33.3446H16.9652V31.2274H25.6644C26.6346 31.2274 27.424 30.438 27.424 29.4678C27.424 27.4821 25.8085 25.8665 23.8228 25.8665H15.167C14.3435 25.204 13.2984 24.8063 12.1616 24.8063C11.5246 24.8063 10.9077 24.9308 10.3391 25.1633C8.225 23.847 6.92328 21.5241 6.92328 19.0303C6.92328 17.4222 7.45852 15.8744 8.43953 14.6089L11.4909 17.6603C11.1085 18.3901 11.2159 19.3243 11.8423 19.9505L13.4284 21.5367C14.1932 22.3015 15.431 22.3015 16.1959 21.5367L20.9131 16.8195C21.2019 18.8358 22.1306 20.6968 23.5991 22.1589C25.3827 23.9349 27.7512 24.913 30.2684 24.913C35.4806 24.913 39.7212 20.6725 39.7212 15.4602C39.7211 13.334 39.0313 11.3256 37.7264 9.65224ZM30.7213 37.6666C30.7213 38.3072 30.2002 38.8283 29.5596 38.8283H2.70641C2.3375 38.8283 2.03742 38.5282 2.03742 38.1593V36.862C2.03742 35.5686 3.08961 34.5164 4.38297 34.5164H27.5711C29.3081 34.5164 30.7213 35.9296 30.7213 37.6666ZM23.8228 27.0384C25.1623 27.0384 26.2521 28.1283 26.2521 29.4678C26.2521 29.7919 25.9884 30.0555 25.6644 30.0555H16.9653C16.9359 29.8548 17.143 28.4962 16.2177 27.0384H23.8228ZM15.7927 29.584C15.7928 29.5927 15.7934 29.6013 15.7934 29.61V33.3446H5.45445C9.36914 27.2372 9.16938 27.5241 9.40469 27.2467C10.0793 26.4613 11.0683 25.9782 12.1616 25.9782C14.1428 25.9782 15.7782 27.5778 15.7927 29.584ZM11.6126 2.99279L18.8225 10.2026L14.4452 14.58L12.2565 16.7686C4.49992 9.01193 5.0475 9.56216 4.97109 9.47857C4.28109 8.70857 4.30367 7.5238 5.04664 6.78091L8.83477 2.99279C9.60047 2.22709 10.8466 2.22677 11.6126 2.99279ZM3.51828 3.01412L5.06797 1.46443C5.45664 1.07576 6.08906 1.07568 6.47781 1.46443L7.5918 2.57841L4.63234 5.53794L3.51828 4.42396C3.12961 4.03529 3.12961 3.40279 3.51828 3.01412ZM15.3673 20.7079C15.0606 21.0147 14.5638 21.0148 14.257 20.7079L12.6708 19.1218C12.364 18.815 12.3639 18.3184 12.6708 18.0115L15.1356 15.5466L20.0655 10.6167C20.3723 10.3101 20.8688 10.3101 21.1757 10.6168L22.7618 12.203C23.0606 12.5028 23.075 12.9983 22.7618 13.3133L15.3673 20.7079Z" fill="#465C79"/>
</g>
<defs>
<clipPath id="clip0">
<rect width="40" height="40" fill="white"/>
</clipPath>
</defs>
</svg>
