<svg width="49" height="50" viewBox="0 0 49 50" fill="none" xmlns="http://www.w3.org/2000/svg">
<path d="M8.44531 14.1396H33.6563C33.8515 14.1396 34.0387 14.0621 34.1767 13.9241C34.3147 13.7861 34.3923 13.5989 34.3923 13.4037C34.3923 13.2085 34.3147 13.0213 34.1767 12.8833C34.0387 12.7453 33.8515 12.6677 33.6563 12.6677H8.44531C8.25013 12.6677 8.06294 12.7453 7.92493 12.8833C7.78691 13.0213 7.70937 13.2085 7.70937 13.4037C7.70937 13.5989 7.78691 13.7861 7.92493 13.9241C8.06294 14.0621 8.25013 14.1396 8.44531 14.1396Z" fill="#63C463" stroke="#63C463" stroke-width="0.3"/>
<path d="M33.6571 18.6841H16.4678C16.2726 18.6841 16.0854 18.7616 15.9474 18.8997C15.8094 19.0377 15.7318 19.2249 15.7318 19.42C15.7318 19.6152 15.8094 19.8024 15.9474 19.9404C16.0854 20.0784 16.2726 20.156 16.4678 20.156H33.6571C33.8523 20.156 34.0395 20.0784 34.1775 19.9404C34.3155 19.8024 34.3931 19.6152 34.3931 19.42C34.3931 19.2249 34.3155 19.0377 34.1775 18.8997C34.0395 18.7616 33.8523 18.6841 33.6571 18.6841Z" fill="#63C463" stroke="#63C463" stroke-width="0.3"/>
<path d="M24.9479 24.7005H16.4678C16.2726 24.7005 16.0854 24.778 15.9474 24.916C15.8094 25.054 15.7318 25.2412 15.7318 25.4364C15.7318 25.6316 15.8094 25.8188 15.9474 25.9568C16.0854 26.0948 16.2726 26.1724 16.4678 26.1724H24.9479C25.143 26.1724 25.3302 26.0948 25.4683 25.9568C25.6063 25.8188 25.6838 25.6316 25.6838 25.4364C25.6838 25.2412 25.6063 25.054 25.4683 24.916C25.3302 24.778 25.143 24.7005 24.9479 24.7005Z" fill="#63C463" stroke="#63C463" stroke-width="0.3"/>
<path d="M20.8217 30.7163H8.44531C8.25013 30.7163 8.06294 30.7938 7.92493 30.9318C7.78691 31.0698 7.70937 31.257 7.70937 31.4522C7.70937 31.6474 7.78691 31.8346 7.92493 31.9726C8.06294 32.1106 8.25013 32.1881 8.44531 32.1881H20.8217C21.0169 32.1881 21.204 32.1106 21.3421 31.9726C21.4801 31.8346 21.5576 31.6474 21.5576 31.4522C21.5576 31.257 21.4801 31.0698 21.3421 30.9318C21.204 30.7938 21.0169 30.7163 20.8217 30.7163Z" fill="#63C463" stroke="#63C463" stroke-width="0.3"/>
<path d="M21.2274 36.9482L21.122 37.0536L21.2274 36.9482C21.1591 36.8798 21.0779 36.8256 20.9887 36.7886C20.8994 36.7517 20.8037 36.7326 20.707 36.7326H8.44531C8.25013 36.7326 8.06294 36.8102 7.92493 36.9482C7.78691 37.0862 7.70937 37.2734 7.70937 37.4686C7.70937 37.6637 7.78691 37.8509 7.92493 37.989C8.06294 38.127 8.25013 38.2045 8.44531 38.2045H20.707C20.8037 38.2045 20.8994 38.1855 20.9887 38.1485C21.0779 38.1115 21.1591 38.0573 21.2274 37.989L21.1214 37.8829L21.2274 37.989C21.2958 37.9206 21.35 37.8395 21.3869 37.7502C21.4239 37.6609 21.443 37.5652 21.443 37.4686C21.443 37.3719 21.4239 37.2762 21.3869 37.1869C21.35 37.0977 21.2958 37.0165 21.2274 36.9482Z" fill="#63C463" stroke="#63C463" stroke-width="0.3"/>
<path d="M30 39.592V40.6H31.568V43H32.752V40.6H36.864V39.592H32.752V38.248H34.88C37.872 38.248 38.944 36.472 38.944 34.712C38.944 33.368 38.352 31.16 34.88 31.16H31.568V37.208H30V38.248H31.568V39.592H30ZM32.752 32.232H34.896C37.008 32.232 37.76 33.464 37.76 34.728C37.76 35.96 37.008 37.208 34.896 37.208H32.752V32.232Z" fill="#63C463"/>
<path d="M27.9273 47.1813H28.0057C29.395 48.0898 30.9557 48.7055 32.5925 48.9899C34.2934 49.2854 36.0377 49.2163 37.71 48.7873C39.3822 48.3583 40.9443 47.5791 42.2929 46.5012C43.6414 45.4233 44.7458 44.0714 45.5328 42.5348C46.3198 40.9982 46.7716 39.312 46.8582 37.5878C46.9448 35.8636 46.6643 34.1406 46.0353 32.5329C45.4062 30.9252 44.443 29.4694 43.2092 28.2618C42.0005 27.0786 40.5591 26.1602 38.9769 25.5644V6.71934V6.71918C38.976 5.91644 38.6568 5.1468 38.0892 4.57916C37.5216 4.01152 36.7519 3.69225 35.9492 3.69141H35.949H28.5865C28.4213 2.90473 27.9976 2.19442 27.381 1.67491C26.7322 1.12816 25.9112 0.827758 25.0627 0.826563H25.0625H17.0414C17.0413 0.826563 17.0413 0.826563 17.0413 0.826563C16.1923 0.826237 15.3705 1.1261 14.7211 1.67314C14.1042 2.19291 13.6807 2.90403 13.5167 3.69141H6.1542L6.15404 3.69141C5.35129 3.69225 4.58167 4.01152 4.01405 4.57916C3.44643 5.1468 3.12718 5.91644 3.12637 6.71918V6.71934L3.12637 44.1531L3.12637 44.1533C3.12713 44.956 3.44635 45.7257 4.01397 46.2934C4.5816 46.8611 5.35126 47.1804 6.15404 47.1813H6.1542H27.9273ZM15.5361 2.92177L15.5762 2.88161C15.7647 2.70206 15.9849 2.55876 16.2257 2.45908C16.4841 2.35213 16.7612 2.29753 17.0408 2.29844H17.0413H25.0625C25.6245 2.30224 26.1623 2.52815 26.5584 2.92689C26.9547 3.32575 27.1771 3.86516 27.1771 4.42739C27.1771 4.98963 26.9547 5.52903 26.5584 5.92789C26.1623 6.32663 25.6245 6.55254 25.0625 6.55635H17.0413C17.0413 6.55635 17.0413 6.55635 17.0413 6.55635C16.6203 6.55624 16.2087 6.43132 15.8587 6.19735C15.5086 5.96338 15.2358 5.63087 15.0747 5.24186C14.9136 4.85285 14.8714 4.42481 14.9535 4.01185C15.0357 3.59888 15.2384 3.21954 15.5361 2.92177ZM17.0411 8.02822H17.0413H25.063H25.063C25.9119 8.02791 26.7334 7.72781 27.3826 7.18087C27.9994 6.6612 28.423 5.9504 28.5875 5.16328H35.9493C36.3619 5.16375 36.7575 5.32787 37.0492 5.61961C37.3409 5.91136 37.505 6.30692 37.5055 6.7195V25.1133C34.9272 24.4973 32.2163 24.7381 29.7846 25.8024C27.2941 26.8925 25.2393 28.7838 23.947 31.1756C22.6547 33.5675 22.199 36.3228 22.6523 39.0034C23.0845 41.5589 24.3192 43.9068 26.1724 45.7094H6.15437C5.7418 45.7089 5.34627 45.5448 5.05454 45.2531C4.76284 44.9614 4.59874 44.5659 4.59824 44.1534C4.59824 44.1533 4.59824 44.1533 4.59824 44.1532V6.71951C4.59824 6.71947 4.59824 6.71944 4.59824 6.71941C4.59874 6.30687 4.76284 5.91136 5.05454 5.61964C5.34627 5.3279 5.7418 5.16378 6.15438 5.16328H13.5168C13.6819 5.95008 14.1057 6.66049 14.7224 7.18004C15.3714 7.72682 16.1925 8.02717 17.0411 8.02822ZM34.6785 47.7016C32.5577 47.7015 30.4844 47.0726 28.721 45.8943C26.9575 44.716 25.583 43.0412 24.7714 41.0817C23.9597 39.1222 23.7474 36.966 24.1611 34.8859C24.5749 32.8057 25.5962 30.8949 27.096 29.3952C28.5957 27.8955 30.5065 26.8741 32.5866 26.4603C34.6668 26.0466 36.823 26.2589 38.7825 27.0706C40.742 27.8822 42.4168 29.2567 43.5951 31.0202C44.7734 32.7836 45.4023 34.8569 45.4023 36.9778C45.3991 39.8209 44.2683 42.5467 42.2579 44.5571C40.2475 46.5675 37.5217 47.6983 34.6785 47.7016Z" fill="#63C463" stroke="#63C463" stroke-width="0.3"/>
</svg>
