<svg width="48" height="60" viewBox="0 0 48 60" fill="none" xmlns="http://www.w3.org/2000/svg">
<g clip-path="url(#clip0)">
<path d="M35.707 0.292793C35.5197 0.105423 35.2652 0 35.0001 0H5.00007C2.2398 0.00310068 0.00310068 2.2398 0 5.00007V55.0001C0.00310068 57.7602 2.2398 59.9971 5.00007 60.0002H43.0001C45.7601 59.9971 47.997 57.7604 48.0001 55.0001V13.0001C48.0001 12.735 47.8947 12.4805 47.7073 12.2929L35.707 0.292793ZM36 3.41407L44.5858 11.9999H39C37.344 11.9979 36.0018 10.6559 36 8.99996V3.41407ZM46 54.9999C45.998 56.6559 44.656 57.9981 43.0001 57.9998H5.00007C3.34409 57.9978 2.00193 56.6559 2.00016 54.9999V5.00007C2.00193 3.34387 3.34387 2.00193 5.00007 1.99994H34.0001V8.99996C34.0032 11.76 36.2399 13.9969 39.0002 14H46.0002V54.9999H46Z" fill="#63C463"/>
<path d="M21 23C21 23.5523 21.4476 23.9999 22 23.9999H40.9999C41.5522 23.9999 41.9998 23.5523 41.9998 23C41.9998 22.4476 41.5522 22 40.9999 22H22C21.4476 22 21 22.4476 21 23Z" fill="#63C463"/>
<path d="M6.99997 28H27C27.5524 28 28 27.5524 28 27.0001C28 26.4477 27.5524 26.0001 27 26.0001H6.99997C6.44761 26.0001 6 26.4477 6 27.0001C6 27.5524 6.44761 28 6.99997 28Z" fill="#63C463"/>
<path d="M40.9999 29.9999H23C22.4476 29.9999 22 30.4475 22 30.9999C22 31.5522 22.4476 31.9998 23 31.9998H40.9999C41.5522 31.9998 41.9998 31.5522 41.9998 30.9999C41.9998 30.4475 41.5522 29.9999 40.9999 29.9999Z" fill="#63C463"/>
<path d="M6.99997 36.0001H30.9999C31.5523 36.0001 31.9999 35.5525 31.9999 35.0002C31.9999 34.4478 31.5523 34.0002 30.9999 34.0002H6.99997C6.44761 34.0002 6 34.4478 6 35.0002C6 35.5523 6.44761 36.0001 6.99997 36.0001Z" fill="#63C463"/>
<path d="M9.99997 22C9.44761 22 9 22.4476 9 23C9 23.5523 9.44761 23.9999 9.99997 23.9999H18C18.5523 23.9999 18.9999 23.5523 18.9999 23C18.9999 22.4476 18.5523 22 18 22H9.99997Z" fill="#63C463"/>
<path d="M40.9999 25.9998H31C30.4476 25.9998 30 26.4475 30 26.9998C30 27.5522 30.4476 27.9998 31 27.9998H40.9999C41.5523 27.9998 41.9999 27.5522 41.9999 26.9998C41.9999 26.4475 41.5523 25.9998 40.9999 25.9998Z" fill="#63C463"/>
<path d="M6.99997 31.9998H19.0001C19.5524 31.9998 20 31.5522 20 30.9999C20 30.4475 19.5524 29.9999 19.0001 29.9999H6.99997C6.44761 29.9999 6 30.4475 6 30.9999C6 31.5522 6.44761 31.9998 6.99997 31.9998Z" fill="#63C463"/>
<path d="M40.9998 33.9999H35C34.4476 33.9999 34 34.4475 34 34.9999C34 35.5523 34.4476 35.9999 35 35.9999H41C41.5524 35.9999 42 35.5523 42 34.9999C42 34.4478 41.5522 33.9999 40.9998 33.9999Z" fill="#63C463"/>
<path d="M6.99997 40H15C15.5523 40 15.9999 39.5524 15.9999 39C15.9999 38.4476 15.5523 38 15 38H6.99997C6.44761 38 6 38.4476 6 39C6 39.5524 6.44761 40 6.99997 40Z" fill="#63C463"/>
<path d="M19 38C18.4476 38 18 38.4476 18 39C18 39.5524 18.4476 40 19 40H28.9999C29.5523 40 29.9999 39.5524 29.9999 39C29.9999 38.4476 29.5523 38 28.9999 38H19Z" fill="#63C463"/>
<path d="M6.99997 15H8.99991V16.9999C8.99991 17.5523 9.44752 17.9999 9.99988 17.9999H14C14.5524 17.9999 15 17.5523 15 16.9999V15H16.9999C17.5523 15 17.9999 14.5523 17.9999 14V9.99988C17.9999 9.44752 17.5523 8.99991 16.9999 8.99991H15V6.99997C15 6.44761 14.5524 6 14 6H9.99988C9.44752 6 8.99991 6.44761 8.99991 6.99997V8.99991H6.99997C6.44761 8.99991 6 9.44752 6 9.99988V14C6 14.5521 6.44761 15 6.99997 15ZM7.99994 10.9999H9.99988C10.5522 10.9999 10.9999 10.5522 10.9999 9.99988V7.99994H12.9998V9.99988C12.9998 10.5522 13.4474 10.9999 13.9998 10.9999H15.9997V12.9998H13.9998C13.4474 12.9998 12.9998 13.4474 12.9998 13.9998V15.9997H10.9999V13.9998C10.9999 13.4474 10.5522 12.9998 9.99988 12.9998H7.99994V10.9999Z" fill="#63C463"/>
<path d="M24.9999 42.0001H6.99997C6.44761 42.0001 6 42.4477 6 43.0001C6 43.5524 6.44761 44 6.99997 44H24.9999C25.5522 44 25.9998 43.5524 25.9998 43.0001C25.9998 42.4477 25.5522 42.0001 24.9999 42.0001Z" fill="#63C463"/>
<path d="M41 38H33C32.4476 38 32 38.4476 32 39C32 39.5524 32.4476 40 33 40H41C41.5523 40 41.9999 39.5524 41.9999 39C41.9999 38.4476 41.5523 38 41 38Z" fill="#63C463"/>
<path d="M33.4338 51.8951H29.3812C28.8218 51.8951 28.3682 52.3486 28.3682 52.9081C28.3682 53.4675 28.8218 53.9211 29.3812 53.9211H33.4338C33.9932 53.9211 34.4468 53.4675 34.4468 52.9081C34.4468 52.3486 33.9932 51.8951 33.4338 51.8951Z" fill="#63C463"/>
<path d="M41.5383 51.8951H37.4857C36.9262 51.8951 36.4727 52.3486 36.4727 52.9081C36.4727 53.4675 36.9262 53.9211 37.4857 53.9211H41.5383C42.0977 53.9211 42.5513 53.4675 42.5513 52.9081C42.5513 52.3486 42.098 51.8951 41.5383 51.8951Z" fill="#63C463"/>
<path d="M41.8944 45.5528C41.6475 45.0589 41.0469 44.8587 40.5527 45.1057L34.7638 47.9999H32.6179L31.8943 46.5526C31.6473 46.0587 31.0467 45.8585 30.5526 46.1054C30.4565 46.1535 30.3688 46.2168 30.2928 46.2928L28.2928 48.2927C27.9024 48.6832 27.9024 49.3164 28.2928 49.7071C28.6833 50.0978 29.3165 50.0976 29.7072 49.7071L30.7262 48.6881L31.1058 49.4473C31.2753 49.7862 31.6214 50.0001 32.0002 50.0001H35.0001C35.1553 50.0001 35.3084 49.964 35.4472 49.8945L41.4473 46.8946C41.9412 46.6474 42.1414 46.0467 41.8944 45.5528Z" fill="#63C463"/>
</g>
<defs>
<clipPath id="clip0">
<rect width="47.9999" height="60" fill="white"/>
</clipPath>
</defs>
</svg>
