<svg width="42" height="52" viewBox="0 0 42 52" fill="none" xmlns="http://www.w3.org/2000/svg">
<mask id="path-1-outside-1" maskUnits="userSpaceOnUse" x="0" y="0" width="42" height="52" fill="black">
<rect fill="white" width="42" height="52"/>
<path d="M30.7559 1.24399C30.5997 1.08785 30.3877 1 30.1667 1H5.16673C2.8665 1.00258 1.00258 2.8665 1 5.16673V46.8335C1.00258 49.1335 2.8665 50.9976 5.16673 51.0002H36.8334C39.1334 50.9976 40.9975 49.1337 41.0001 46.8335V11.8334C41.0001 11.6125 40.9123 11.4004 40.7561 11.2441L30.7559 1.24399ZM31 3.84506L38.1549 10.9999H33.5C32.12 10.9982 31.0015 9.87995 31 8.49996V3.84506ZM39.3333 46.8333C39.3316 48.2133 38.2134 49.3317 36.8334 49.3332H5.16673C3.78674 49.3315 2.66828 48.2133 2.6668 46.8333V5.16673C2.66828 3.78655 3.78656 2.66828 5.16673 2.66662H29.3334V8.49996C29.336 10.8 31.1999 12.6641 33.5002 12.6667H39.3335L39.3333 46.8333Z"/>
<path d="M18.5001 20.1667C18.5001 20.627 18.8732 21 19.3335 21H35.1667C35.627 21 36 20.627 36 20.1667C36 19.7063 35.627 19.3333 35.1667 19.3333H19.3335C18.8732 19.3333 18.5001 19.7063 18.5001 20.1667Z"/>
<path d="M35.1666 25.9999H20.1667C19.7063 25.9999 19.3333 26.3729 19.3333 26.8332C19.3333 27.2935 19.7063 27.6665 20.1667 27.6665H35.1666C35.6269 27.6665 35.9999 27.2935 35.9999 26.8332C35.9999 26.3729 35.6269 25.9999 35.1666 25.9999Z"/>
<path d="M9.33309 19.3333C8.87278 19.3333 8.49978 19.7063 8.49978 20.1667C8.49978 20.627 8.87278 21 9.33309 21H15.9997C16.46 21 16.8331 20.627 16.8331 20.1667C16.8331 19.7063 16.46 19.3333 15.9997 19.3333H9.33309Z"/>
<path d="M6.83349 27.6665H16.8336C17.2939 27.6665 17.6669 27.2935 17.6669 26.8332C17.6669 26.3729 17.2939 25.9999 16.8336 25.9999H6.83349C6.37319 25.9999 6.00018 26.3729 6.00018 26.8332C6.00018 27.2935 6.37319 27.6665 6.83349 27.6665Z"/>
<path d="M6.83349 34.3333H13.5001C13.9604 34.3333 14.3335 33.9603 14.3335 33.5C14.3335 33.0397 13.9604 32.6667 13.5001 32.6667H6.83349C6.37319 32.6667 6.00018 33.0397 6.00018 33.5C6.00018 33.9603 6.37319 34.3333 6.83349 34.3333Z"/>
<path d="M16.8332 32.6667C16.3729 32.6667 15.9999 33.0397 15.9999 33.5C15.9999 33.9603 16.3729 34.3333 16.8332 34.3333H25.1665C25.6268 34.3333 25.9998 33.9603 25.9998 33.5C25.9998 33.0397 25.6268 32.6667 25.1665 32.6667H16.8332Z"/>
<path d="M6.83349 13.5H8.50011V15.1666C8.50011 15.6269 8.87312 15.9999 9.33342 15.9999H12.6668C13.1271 15.9999 13.5001 15.6269 13.5001 15.1666V13.5H15.1668C15.6271 13.5 16.0001 13.127 16.0001 12.6666V9.33323C16.0001 8.87292 15.6271 8.49992 15.1668 8.49992H13.5001V6.8333C13.5001 6.373 13.1271 5.99999 12.6668 5.99999H9.33342C8.87312 5.99999 8.50011 6.373 8.50011 6.8333V8.49992H6.83349C6.37319 8.49992 6.00018 8.87292 6.00018 9.33323V12.6666C6.00018 13.1268 6.37319 13.5 6.83349 13.5ZM7.6668 10.1665H9.33342C9.79372 10.1665 10.1667 9.79353 10.1667 9.33323V7.66661H11.8333V9.33323C11.8333 9.79353 12.2064 10.1665 12.6667 10.1665H14.3333V11.8332H12.6667C12.2064 11.8332 11.8333 12.2062 11.8333 12.6665V14.3331H10.1667V12.6665C10.1667 12.2062 9.79372 11.8332 9.33342 11.8332H7.6668V10.1665Z"/>
<path d="M35.1667 32.6667H28.5C28.0397 32.6667 27.6667 33.0397 27.6667 33.5C27.6667 33.9603 28.0397 34.3333 28.5 34.3333H35.1667C35.627 34.3333 36 33.9603 36 33.5C36 33.0397 35.627 32.6667 35.1667 32.6667Z"/>
<path d="M35.9117 41.9608C35.7059 41.5492 35.2054 41.3824 34.7936 41.5881L29.9695 44H28.1812L27.5783 42.7939C27.3725 42.3823 26.8719 42.2155 26.4602 42.4213C26.3801 42.4613 26.307 42.5141 26.2437 42.5774L24.577 44.244C24.2517 44.5694 24.2517 45.0971 24.577 45.4227C24.9024 45.7482 25.4301 45.748 25.7557 45.4227L26.6049 44.5735L26.9212 45.2062C27.0624 45.4885 27.3509 45.6668 27.6665 45.6668H30.1664C30.2958 45.6668 30.4233 45.6367 30.539 45.5788L35.5391 43.0789C35.9507 42.8729 36.1175 42.3724 35.9117 41.9608Z"/>
</mask>
<path d="M30.7559 1.24399C30.5997 1.08785 30.3877 1 30.1667 1H5.16673C2.8665 1.00258 1.00258 2.8665 1 5.16673V46.8335C1.00258 49.1335 2.8665 50.9976 5.16673 51.0002H36.8334C39.1334 50.9976 40.9975 49.1337 41.0001 46.8335V11.8334C41.0001 11.6125 40.9123 11.4004 40.7561 11.2441L30.7559 1.24399ZM31 3.84506L38.1549 10.9999H33.5C32.12 10.9982 31.0015 9.87995 31 8.49996V3.84506ZM39.3333 46.8333C39.3316 48.2133 38.2134 49.3317 36.8334 49.3332H5.16673C3.78674 49.3315 2.66828 48.2133 2.6668 46.8333V5.16673C2.66828 3.78655 3.78656 2.66828 5.16673 2.66662H29.3334V8.49996C29.336 10.8 31.1999 12.6641 33.5002 12.6667H39.3335L39.3333 46.8333Z" fill="#63C463"/>
<path d="M18.5001 20.1667C18.5001 20.627 18.8732 21 19.3335 21H35.1667C35.627 21 36 20.627 36 20.1667C36 19.7063 35.627 19.3333 35.1667 19.3333H19.3335C18.8732 19.3333 18.5001 19.7063 18.5001 20.1667Z" fill="#63C463"/>
<path d="M35.1666 25.9999H20.1667C19.7063 25.9999 19.3333 26.3729 19.3333 26.8332C19.3333 27.2935 19.7063 27.6665 20.1667 27.6665H35.1666C35.6269 27.6665 35.9999 27.2935 35.9999 26.8332C35.9999 26.3729 35.6269 25.9999 35.1666 25.9999Z" fill="#63C463"/>
<path d="M9.33309 19.3333C8.87278 19.3333 8.49978 19.7063 8.49978 20.1667C8.49978 20.627 8.87278 21 9.33309 21H15.9997C16.46 21 16.8331 20.627 16.8331 20.1667C16.8331 19.7063 16.46 19.3333 15.9997 19.3333H9.33309Z" fill="#63C463"/>
<path d="M6.83349 27.6665H16.8336C17.2939 27.6665 17.6669 27.2935 17.6669 26.8332C17.6669 26.3729 17.2939 25.9999 16.8336 25.9999H6.83349C6.37319 25.9999 6.00018 26.3729 6.00018 26.8332C6.00018 27.2935 6.37319 27.6665 6.83349 27.6665Z" fill="#63C463"/>
<path d="M6.83349 34.3333H13.5001C13.9604 34.3333 14.3335 33.9603 14.3335 33.5C14.3335 33.0397 13.9604 32.6667 13.5001 32.6667H6.83349C6.37319 32.6667 6.00018 33.0397 6.00018 33.5C6.00018 33.9603 6.37319 34.3333 6.83349 34.3333Z" fill="#63C463"/>
<path d="M16.8332 32.6667C16.3729 32.6667 15.9999 33.0397 15.9999 33.5C15.9999 33.9603 16.3729 34.3333 16.8332 34.3333H25.1665C25.6268 34.3333 25.9998 33.9603 25.9998 33.5C25.9998 33.0397 25.6268 32.6667 25.1665 32.6667H16.8332Z" fill="#63C463"/>
<path d="M6.83349 13.5H8.50011V15.1666C8.50011 15.6269 8.87312 15.9999 9.33342 15.9999H12.6668C13.1271 15.9999 13.5001 15.6269 13.5001 15.1666V13.5H15.1668C15.6271 13.5 16.0001 13.127 16.0001 12.6666V9.33323C16.0001 8.87292 15.6271 8.49992 15.1668 8.49992H13.5001V6.8333C13.5001 6.373 13.1271 5.99999 12.6668 5.99999H9.33342C8.87312 5.99999 8.50011 6.373 8.50011 6.8333V8.49992H6.83349C6.37319 8.49992 6.00018 8.87292 6.00018 9.33323V12.6666C6.00018 13.1268 6.37319 13.5 6.83349 13.5ZM7.6668 10.1665H9.33342C9.79372 10.1665 10.1667 9.79353 10.1667 9.33323V7.66661H11.8333V9.33323C11.8333 9.79353 12.2064 10.1665 12.6667 10.1665H14.3333V11.8332H12.6667C12.2064 11.8332 11.8333 12.2062 11.8333 12.6665V14.3331H10.1667V12.6665C10.1667 12.2062 9.79372 11.8332 9.33342 11.8332H7.6668V10.1665Z" fill="#63C463"/>
<path d="M35.1667 32.6667H28.5C28.0397 32.6667 27.6667 33.0397 27.6667 33.5C27.6667 33.9603 28.0397 34.3333 28.5 34.3333H35.1667C35.627 34.3333 36 33.9603 36 33.5C36 33.0397 35.627 32.6667 35.1667 32.6667Z" fill="#63C463"/>
<path d="M35.9117 41.9608C35.7059 41.5492 35.2054 41.3824 34.7936 41.5881L29.9695 44H28.1812L27.5783 42.7939C27.3725 42.3823 26.8719 42.2155 26.4602 42.4213C26.3801 42.4613 26.307 42.5141 26.2437 42.5774L24.577 44.244C24.2517 44.5694 24.2517 45.0971 24.577 45.4227C24.9024 45.7482 25.4301 45.748 25.7557 45.4227L26.6049 44.5735L26.9212 45.2062C27.0624 45.4885 27.3509 45.6668 27.6665 45.6668H30.1664C30.2958 45.6668 30.4233 45.6367 30.539 45.5788L35.5391 43.0789C35.9507 42.8729 36.1175 42.3724 35.9117 41.9608Z" fill="#63C463"/>
<path d="M30.7559 1.24399C30.5997 1.08785 30.3877 1 30.1667 1H5.16673C2.8665 1.00258 1.00258 2.8665 1 5.16673V46.8335C1.00258 49.1335 2.8665 50.9976 5.16673 51.0002H36.8334C39.1334 50.9976 40.9975 49.1337 41.0001 46.8335V11.8334C41.0001 11.6125 40.9123 11.4004 40.7561 11.2441L30.7559 1.24399ZM31 3.84506L38.1549 10.9999H33.5C32.12 10.9982 31.0015 9.87995 31 8.49996V3.84506ZM39.3333 46.8333C39.3316 48.2133 38.2134 49.3317 36.8334 49.3332H5.16673C3.78674 49.3315 2.66828 48.2133 2.6668 46.8333V5.16673C2.66828 3.78655 3.78656 2.66828 5.16673 2.66662H29.3334V8.49996C29.336 10.8 31.1999 12.6641 33.5002 12.6667H39.3335L39.3333 46.8333Z" stroke="#63C463" stroke-width="0.4" mask="url(#path-1-outside-1)"/>
<path d="M18.5001 20.1667C18.5001 20.627 18.8732 21 19.3335 21H35.1667C35.627 21 36 20.627 36 20.1667C36 19.7063 35.627 19.3333 35.1667 19.3333H19.3335C18.8732 19.3333 18.5001 19.7063 18.5001 20.1667Z" stroke="#63C463" stroke-width="0.4" mask="url(#path-1-outside-1)"/>
<path d="M35.1666 25.9999H20.1667C19.7063 25.9999 19.3333 26.3729 19.3333 26.8332C19.3333 27.2935 19.7063 27.6665 20.1667 27.6665H35.1666C35.6269 27.6665 35.9999 27.2935 35.9999 26.8332C35.9999 26.3729 35.6269 25.9999 35.1666 25.9999Z" stroke="#63C463" stroke-width="0.4" mask="url(#path-1-outside-1)"/>
<path d="M9.33309 19.3333C8.87278 19.3333 8.49978 19.7063 8.49978 20.1667C8.49978 20.627 8.87278 21 9.33309 21H15.9997C16.46 21 16.8331 20.627 16.8331 20.1667C16.8331 19.7063 16.46 19.3333 15.9997 19.3333H9.33309Z" stroke="#63C463" stroke-width="0.4" mask="url(#path-1-outside-1)"/>
<path d="M6.83349 27.6665H16.8336C17.2939 27.6665 17.6669 27.2935 17.6669 26.8332C17.6669 26.3729 17.2939 25.9999 16.8336 25.9999H6.83349C6.37319 25.9999 6.00018 26.3729 6.00018 26.8332C6.00018 27.2935 6.37319 27.6665 6.83349 27.6665Z" stroke="#63C463" stroke-width="0.4" mask="url(#path-1-outside-1)"/>
<path d="M6.83349 34.3333H13.5001C13.9604 34.3333 14.3335 33.9603 14.3335 33.5C14.3335 33.0397 13.9604 32.6667 13.5001 32.6667H6.83349C6.37319 32.6667 6.00018 33.0397 6.00018 33.5C6.00018 33.9603 6.37319 34.3333 6.83349 34.3333Z" stroke="#63C463" stroke-width="0.4" mask="url(#path-1-outside-1)"/>
<path d="M16.8332 32.6667C16.3729 32.6667 15.9999 33.0397 15.9999 33.5C15.9999 33.9603 16.3729 34.3333 16.8332 34.3333H25.1665C25.6268 34.3333 25.9998 33.9603 25.9998 33.5C25.9998 33.0397 25.6268 32.6667 25.1665 32.6667H16.8332Z" stroke="#63C463" stroke-width="0.4" mask="url(#path-1-outside-1)"/>
<path d="M6.83349 13.5H8.50011V15.1666C8.50011 15.6269 8.87312 15.9999 9.33342 15.9999H12.6668C13.1271 15.9999 13.5001 15.6269 13.5001 15.1666V13.5H15.1668C15.6271 13.5 16.0001 13.127 16.0001 12.6666V9.33323C16.0001 8.87292 15.6271 8.49992 15.1668 8.49992H13.5001V6.8333C13.5001 6.373 13.1271 5.99999 12.6668 5.99999H9.33342C8.87312 5.99999 8.50011 6.373 8.50011 6.8333V8.49992H6.83349C6.37319 8.49992 6.00018 8.87292 6.00018 9.33323V12.6666C6.00018 13.1268 6.37319 13.5 6.83349 13.5ZM7.6668 10.1665H9.33342C9.79372 10.1665 10.1667 9.79353 10.1667 9.33323V7.66661H11.8333V9.33323C11.8333 9.79353 12.2064 10.1665 12.6667 10.1665H14.3333V11.8332H12.6667C12.2064 11.8332 11.8333 12.2062 11.8333 12.6665V14.3331H10.1667V12.6665C10.1667 12.2062 9.79372 11.8332 9.33342 11.8332H7.6668V10.1665Z" stroke="#63C463" stroke-width="0.4" mask="url(#path-1-outside-1)"/>
<path d="M35.1667 32.6667H28.5C28.0397 32.6667 27.6667 33.0397 27.6667 33.5C27.6667 33.9603 28.0397 34.3333 28.5 34.3333H35.1667C35.627 34.3333 36 33.9603 36 33.5C36 33.0397 35.627 32.6667 35.1667 32.6667Z" stroke="#63C463" stroke-width="0.4" mask="url(#path-1-outside-1)"/>
<path d="M35.9117 41.9608C35.7059 41.5492 35.2054 41.3824 34.7936 41.5881L29.9695 44H28.1812L27.5783 42.7939C27.3725 42.3823 26.8719 42.2155 26.4602 42.4213C26.3801 42.4613 26.307 42.5141 26.2437 42.5774L24.577 44.244C24.2517 44.5694 24.2517 45.0971 24.577 45.4227C24.9024 45.7482 25.4301 45.748 25.7557 45.4227L26.6049 44.5735L26.9212 45.2062C27.0624 45.4885 27.3509 45.6668 27.6665 45.6668H30.1664C30.2958 45.6668 30.4233 45.6367 30.539 45.5788L35.5391 43.0789C35.9507 42.8729 36.1175 42.3724 35.9117 41.9608Z" stroke="#63C463" stroke-width="0.4" mask="url(#path-1-outside-1)"/>
</svg>
