<svg width="40" height="40" viewBox="0 0 40 40" fill="none" xmlns="http://www.w3.org/2000/svg">
<g clip-path="url(#clip0)">
<path d="M7.33338 0.95L7.33333 0.95C5.46677 0.952044 3.9521 2.42706 3.95 4.24998V4.25004L3.95 36.75L3.95 36.75C3.9521 38.5728 5.46677 40.048 7.33333 40.05H32.6667C34.5332 40.048 36.048 38.5729 36.0501 36.75V9.45001C36.0501 9.26401 35.9742 9.08576 35.8398 8.95456L35.8398 8.95454L27.8396 1.15451C27.7052 1.02349 27.523 0.95 27.3334 0.95L7.33338 0.95ZM34.6168 36.6998H34.6167L34.6166 36.7498C34.6154 37.7974 33.7443 38.6486 32.6667 38.6498H7.33338C6.25581 38.6485 5.38459 37.7974 5.38344 36.7498V4.25009C5.38459 3.20232 6.25567 2.35122 7.33344 2.34996H26.6167V6.84995V6.85001C26.6188 8.67278 28.1335 10.1479 30.0001 10.15H30.0001H34.6168V36.6998ZM28.05 6.8499V3.33772L33.601 8.74988H30C28.9224 8.74862 28.0512 7.89752 28.05 6.8499Z" fill="#465C79" stroke="#465C79" stroke-width="0.1"/>
<path d="M17.95 15.95C17.95 16.3379 18.272 16.65 18.6666 16.65H31.3332C31.7279 16.65 32.0499 16.3379 32.0499 15.95C32.0499 15.5622 31.7279 15.25 31.3332 15.25H18.6666C18.272 15.25 17.95 15.5622 17.95 15.95Z" fill="#465C79" stroke="#465C79" stroke-width="0.1"/>
<path d="M31.3336 20.4499H19.3336C18.939 20.4499 18.617 20.762 18.617 21.1499C18.617 21.5377 18.939 21.8498 19.3336 21.8498H31.3336C31.7282 21.8498 32.0502 21.5377 32.0502 21.1499C32.0502 20.762 31.7282 20.4499 31.3336 20.4499Z" fill="#465C79" stroke="#465C79" stroke-width="0.1"/>
<path d="M10.6666 15.25C10.272 15.25 9.95 15.5622 9.95 15.95C9.95 16.3379 10.272 16.65 10.6666 16.65H16C16.3946 16.65 16.7166 16.3379 16.7166 15.95C16.7166 15.5622 16.3946 15.25 16 15.25H10.6666Z" fill="#465C79" stroke="#465C79" stroke-width="0.1"/>
<path d="M8.66665 21.8498H16.6667C17.0614 21.8498 17.3834 21.5377 17.3834 21.1499C17.3834 20.762 17.0614 20.4499 16.6667 20.4499H8.66665C8.27199 20.4499 7.95 20.762 7.95 21.1499C7.95 21.5377 8.27199 21.8498 8.66665 21.8498Z" fill="#465C79" stroke="#465C79" stroke-width="0.1"/>
<path d="M8.66665 27.0498H14C14.3946 27.0498 14.7166 26.7376 14.7166 26.3498C14.7166 25.962 14.3946 25.6498 14 25.6498H8.66665C8.27199 25.6498 7.95 25.962 7.95 26.3498C7.95 26.7376 8.27199 27.0498 8.66665 27.0498Z" fill="#465C79" stroke="#465C79" stroke-width="0.1"/>
<path d="M16.6666 25.6498C16.272 25.6498 15.95 25.962 15.95 26.3498C15.95 26.7376 16.272 27.0498 16.6666 27.0498H23.3333C23.7279 27.0498 24.0499 26.7376 24.0499 26.3498C24.0499 25.962 23.7279 25.6498 23.3333 25.6498H16.6666Z" fill="#465C79" stroke="#465C79" stroke-width="0.1"/>
<path d="M10.0499 10.75V10.7H9.99994H8.66665C8.32482 10.7 8.05 10.4301 8.05 10.1V7.49994C8.05 7.1697 8.32482 6.89996 8.66665 6.89996H9.99994H10.0499V6.84996V5.55C10.0499 5.21977 10.3248 4.95002 10.6666 4.95002H13.3333C13.6752 4.95002 13.95 5.21977 13.95 5.55V6.84996V6.89996H14H15.3333C15.6751 6.89996 15.9499 7.1697 15.9499 7.49994V10.1C15.9499 10.4302 15.6751 10.7 15.3333 10.7H14H13.95V10.75V12.0499C13.95 12.3802 13.6752 12.6499 13.3333 12.6499H10.6666C10.3248 12.6499 10.0499 12.3802 10.0499 12.0499V10.75ZM9.33329 8.09992H9.28329V8.14992V9.44987V9.49987H9.33329H10.6666C11.0084 9.49987 11.2832 9.76961 11.2832 10.0999V11.3998V11.4498H11.3332H12.6665H12.7165V11.3998V10.0999C12.7165 9.76961 12.9913 9.49987 13.3332 9.49987H14.6665H14.7165V9.44987V8.14992V8.09992H14.6665H13.3332C12.9913 8.09992 12.7165 7.83017 12.7165 7.49994V6.19998V6.14998H12.6665H11.3332H11.2832V6.19998V7.49994C11.2832 7.83017 11.0084 8.09992 10.6666 8.09992H9.33329Z" fill="#465C79" stroke="#465C79" stroke-width="0.1"/>
<path d="M31.333 25.6498H25.9997C25.605 25.6498 25.283 25.962 25.283 26.3498C25.283 26.7376 25.605 27.0498 25.9997 27.0498H31.333C31.7276 27.0498 32.0496 26.7376 32.0496 26.3498C32.0496 25.962 31.7276 25.6498 31.333 25.6498Z" fill="#465C79" stroke="#465C79" stroke-width="0.1"/>
<path d="M31.0126 32.6136L31.0126 32.6136L27.1636 34.4899H25.7751L25.3067 33.5763L25.3067 33.5763C25.1293 33.2304 24.6991 33.0914 24.3458 33.2635L24.3458 33.2635C24.277 33.2971 24.2141 33.3413 24.1596 33.3944L22.8263 34.6944C22.5459 34.9678 22.5459 35.4117 22.8263 35.6853C23.1061 35.9582 23.5592 35.958 23.839 35.6853L23.8391 35.6853L24.4699 35.0702L24.6921 35.5035C24.8138 35.7408 25.062 35.89 25.3328 35.89H27.3327C27.4438 35.89 27.5533 35.8648 27.6528 35.8162L31.6528 33.8663L31.6528 33.8663C32.0065 33.6937 32.1512 33.273 31.9735 32.9264C31.7961 32.5806 31.3658 32.4415 31.0126 32.6136Z" fill="#465C79" stroke="#465C79" stroke-width="0.1"/>
</g>
<defs>
<clipPath id="clip0">
<rect width="40" height="40" fill="white"/>
</clipPath>
</defs>
</svg>
