<svg width="40" height="40" viewBox="0 0 40 40" fill="none" xmlns="http://www.w3.org/2000/svg">
<g clip-path="url(#clip0)">
<path d="M32.8906 35.8984C32.5675 35.8984 32.3047 36.1613 32.3047 36.4844C32.3047 36.8075 32.5675 37.0703 32.8906 37.0703C33.2138 37.0703 33.4766 36.8075 33.4766 36.4844C33.4766 36.1613 33.2138 35.8984 32.8906 35.8984ZM34.6484 33.4417V30.0594C34.6484 28.8838 34.3083 27.7438 33.6646 26.7623C33.4872 26.4918 33.1241 26.4163 32.8533 26.5938C32.5827 26.7712 32.5072 27.1345 32.6847 27.405C33.2027 28.1949 33.4766 29.1128 33.4766 30.0594V33.0185C33.2859 32.9864 33.0903 32.9688 32.8906 32.9688C32.6909 32.9688 32.4954 32.9864 32.3047 33.0185V30.0594C32.3047 28.0291 30.6533 26.3773 28.6234 26.3773C26.5932 26.3773 24.9414 28.0291 24.9414 30.0594V33.4406C24.9414 36.1166 22.764 38.2938 20.0875 38.2938C17.4115 38.2938 15.2344 36.1166 15.2344 33.4406V31.6975C15.4162 31.7627 15.6211 31.7984 15.8218 31.7984C16.0242 31.7984 16.2207 31.7627 16.4062 31.6971V33.4406C16.4062 35.4705 18.0577 37.1219 20.0875 37.1219C22.1177 37.1219 23.7695 35.4705 23.7695 33.4406V30.0594C23.7695 27.383 25.947 25.2055 28.6234 25.2055C29.4177 25.2055 30.2059 25.4024 30.9028 25.7751C31.1883 25.9276 31.5432 25.82 31.6958 25.5346C31.8484 25.2492 31.7406 24.8942 31.4553 24.7416C30.589 24.2785 29.6098 24.0337 28.6234 24.0337C25.3009 24.0337 22.5977 26.7368 22.5977 30.0595V33.4407C22.5977 34.8244 21.4716 35.9501 20.0875 35.9501C18.7038 35.9501 17.5781 34.8244 17.5781 33.4407V25.438C23.5682 24.5737 28.0469 19.4259 28.0469 13.3376C28.0469 12.6009 27.5648 11.9204 26.875 11.679V6.05469C26.875 4.03641 25.5355 2.30141 23.6311 1.7682C23.4349 0.761953 22.5472 0 21.4844 0H20.3125C19.1063 0 18.125 0.981328 18.125 2.1875C18.125 3.39367 19.1063 4.375 20.3125 4.375H21.4844C22.4171 4.375 23.2149 3.78797 23.5289 2.96422C24.8163 3.42219 25.7031 4.64469 25.7031 6.05469V11.6818C25.0203 11.9277 24.5337 12.5924 24.5312 13.3677C24.5149 18.1543 20.6072 22.0485 15.8203 22.0485C13.8095 22.0485 11.8464 21.344 10.2925 20.0648C10.0427 19.8592 9.67344 19.8949 9.46773 20.1448C9.26203 20.3946 9.29781 20.7639 9.54766 20.9695C11.3107 22.421 13.5384 23.2204 15.8202 23.2204C21.2512 23.2204 25.6845 18.8023 25.703 13.3717C25.7041 13.0473 25.9515 12.7695 26.2545 12.7526C26.586 12.7341 26.8749 13.0048 26.8749 13.3376C26.8749 18.9364 22.6863 23.6555 17.1316 24.3148C16.718 24.3638 16.4062 24.714 16.4062 25.1292V30.0405C16.408 30.3695 16.1196 30.6413 15.7911 30.6258C15.4841 30.6113 15.2343 30.3339 15.2343 30.0074V25.1292C15.2343 24.714 14.9224 24.3638 14.5088 24.3148C8.9543 23.6555 4.76562 18.9364 4.76562 13.3376C4.76562 13.0052 5.05422 12.7341 5.38602 12.7526C5.68906 12.7695 5.93648 13.0472 5.93758 13.3717C5.94422 15.3338 6.52719 17.2293 7.62336 18.8534C7.80438 19.1216 8.16844 19.1922 8.43687 19.0112C8.70508 18.8302 8.77578 18.466 8.59477 18.1977C7.62898 16.767 7.11531 15.0968 7.10945 13.3678C7.10687 12.5925 6.62039 11.9278 5.9375 11.6819V6.05469C5.9375 4.64469 6.8243 3.42219 8.11172 2.96422C8.4257 3.78797 9.22352 4.375 10.1562 4.375H11.3281C12.5343 4.375 13.5156 3.39367 13.5156 2.1875C13.5156 0.981328 12.5343 0 11.3281 0H10.1562C9.09344 0 8.2057 0.761953 8.00953 1.7682C6.10516 2.30141 4.76562 4.03641 4.76562 6.05469V11.6791C4.075 11.9211 3.59375 12.6029 3.59375 13.3376C3.59375 19.4259 8.07242 24.5737 14.0625 25.438V33.4406C14.0625 36.7628 16.7653 39.4656 20.0875 39.4656C23.4101 39.4656 26.1133 36.7628 26.1133 33.4406V30.0594C26.1133 28.6753 27.2393 27.5492 28.6234 27.5492C30.0071 27.5492 31.1328 28.6753 31.1328 30.0594V33.4417C30.083 34.0505 29.375 35.1859 29.375 36.4844C29.375 38.4229 30.9521 40 32.8906 40C34.8291 40 36.4062 38.4229 36.4062 36.4844C36.4062 35.1859 35.6982 34.0505 34.6484 33.4417ZM21.4844 3.20312H20.3125C19.7525 3.20312 19.2969 2.7475 19.2969 2.1875C19.2969 1.6275 19.7525 1.17188 20.3125 1.17188H21.4844C22.0444 1.17188 22.5 1.6275 22.5 2.1875C22.5 2.7475 22.0444 3.20312 21.4844 3.20312ZM10.1562 1.17188H11.3281C11.8881 1.17188 12.3438 1.6275 12.3438 2.1875C12.3438 2.7475 11.8881 3.20312 11.3281 3.20312H10.1562C9.59625 3.20312 9.14062 2.7475 9.14062 2.1875C9.14062 1.6275 9.59625 1.17188 10.1562 1.17188ZM32.8906 38.8281C31.5983 38.8281 30.5469 37.7767 30.5469 36.4844C30.5469 35.192 31.5983 34.1406 32.8906 34.1406C34.183 34.1406 35.2344 35.192 35.2344 36.4844C35.2344 37.7767 34.183 38.8281 32.8906 38.8281Z" fill="#465C79"/>
</g>
<defs>
<clipPath id="clip0">
<rect width="40" height="40" fill="white"/>
</clipPath>
</defs>
</svg>
