<svg width="60" height="60" viewBox="0 0 60 60" fill="none" xmlns="http://www.w3.org/2000/svg">
<g clip-path="url(#clip0)">
<path d="M49.3359 53.8477C48.8512 53.8477 48.457 54.2419 48.457 54.7266C48.457 55.2113 48.8512 55.6055 49.3359 55.6055C49.8206 55.6055 50.2148 55.2113 50.2148 54.7266C50.2148 54.2419 49.8206 53.8477 49.3359 53.8477ZM51.9727 50.1626V45.0891C51.9727 43.3257 51.4624 41.6156 50.4969 40.1435C50.2308 39.7377 49.6861 39.6245 49.2799 39.8906C48.874 40.1568 48.7608 40.7017 49.027 41.1075C49.8041 42.2924 50.2148 43.6692 50.2148 45.0891V49.5278C49.9288 49.4796 49.6355 49.4531 49.3359 49.4531C49.0364 49.4531 48.7431 49.4796 48.457 49.5278V45.0891C48.457 42.0437 45.9799 39.566 42.9352 39.566C39.8898 39.566 37.4121 42.0437 37.4121 45.0891V50.1609C37.4121 54.175 34.146 57.4406 30.1312 57.4406C26.1172 57.4406 22.8516 54.175 22.8516 50.1609V47.5462C23.1243 47.644 23.4316 47.6977 23.7327 47.6977C24.0363 47.6977 24.3311 47.644 24.6094 47.5457V50.1609C24.6094 53.2057 27.0865 55.6828 30.1312 55.6828C33.1766 55.6828 35.6543 53.2057 35.6543 50.1609V45.0891C35.6543 41.0745 38.9204 37.8082 42.9352 37.8082C44.1265 37.8082 45.3088 38.1036 46.3542 38.6626C46.7824 38.8914 47.3148 38.73 47.5437 38.3019C47.7725 37.8738 47.6109 37.3413 47.183 37.1125C45.8835 36.4178 44.4146 36.0505 42.9352 36.0505C37.9513 36.0505 33.8965 40.1052 33.8965 45.0892V50.1611C33.8965 52.2366 32.2075 53.9251 30.1312 53.9251C28.0557 53.9251 26.3672 52.2366 26.3672 50.1611V38.157C35.3523 36.8606 42.0703 29.1389 42.0703 20.0064C42.0703 18.9014 41.3471 17.8806 40.3125 17.5185V9.08203C40.3125 6.05461 38.3032 3.45211 35.4466 2.6523C35.1524 1.14293 33.8208 0 32.2266 0H30.4688C28.6595 0 27.1875 1.47199 27.1875 3.28125C27.1875 5.09051 28.6595 6.5625 30.4688 6.5625H32.2266C33.6257 6.5625 34.8224 5.68195 35.2934 4.44633C37.2245 5.13328 38.5547 6.96703 38.5547 9.08203V17.5227C37.5305 17.8916 36.8006 18.8886 36.7968 20.0516C36.7724 27.2314 30.9108 33.0728 23.7305 33.0728C20.7143 33.0728 17.7696 32.016 15.4388 30.0973C15.0641 29.7888 14.5102 29.8424 14.2016 30.2171C13.893 30.5919 13.9467 31.1459 14.3215 31.4543C16.9661 33.6315 20.3075 34.8306 23.7304 34.8306C31.8768 34.8306 38.5268 28.2034 38.5545 20.0576C38.5561 19.5709 38.9272 19.1543 39.3817 19.1289C39.879 19.1011 40.3124 19.5071 40.3124 20.0064C40.3124 28.4046 34.0294 35.4833 25.6975 36.4721C25.0771 36.5457 24.6093 37.071 24.6093 37.6938V45.0608C24.612 45.5542 24.1794 45.9619 23.6866 45.9387C23.2261 45.917 22.8514 45.5009 22.8514 45.0111V37.6938C22.8514 37.071 22.3836 36.5457 21.7632 36.4721C13.4314 35.4833 7.14844 28.4046 7.14844 20.0064C7.14844 19.5077 7.58133 19.1011 8.07902 19.1289C8.53359 19.1542 8.90473 19.5708 8.90637 20.0576C8.91633 23.0007 9.79078 25.8439 11.435 28.28C11.7066 28.6823 12.2527 28.7883 12.6553 28.5169C13.0576 28.2454 13.1637 27.699 12.8921 27.2966C11.4435 25.1504 10.673 22.6452 10.6642 20.0517C10.6603 18.8888 9.93059 17.8917 8.90625 17.5228V9.08203C8.90625 6.96703 10.2364 5.13328 12.1676 4.44633C12.6386 5.68195 13.8353 6.5625 15.2344 6.5625H16.9922C18.8014 6.5625 20.2734 5.09051 20.2734 3.28125C20.2734 1.47199 18.8014 0 16.9922 0H15.2344C13.6402 0 12.3086 1.14293 12.0143 2.6523C9.15773 3.45211 7.14844 6.05461 7.14844 9.08203V17.5187C6.1125 17.8816 5.39062 18.9043 5.39062 20.0064C5.39062 29.1389 12.1086 36.8606 21.0938 38.157V50.1609C21.0938 55.1442 25.148 59.1984 30.1312 59.1984C35.1151 59.1984 39.1699 55.1442 39.1699 50.1609V45.0891C39.1699 43.013 40.8589 41.3238 42.9352 41.3238C45.0107 41.3238 46.6992 43.013 46.6992 45.0891V50.1626C45.1246 51.0758 44.0625 52.7789 44.0625 54.7266C44.0625 57.6343 46.4282 60 49.3359 60C52.2437 60 54.6094 57.6343 54.6094 54.7266C54.6094 52.7789 53.5473 51.0758 51.9727 50.1626ZM32.2266 4.80469H30.4688C29.6287 4.80469 28.9453 4.12125 28.9453 3.28125C28.9453 2.44125 29.6287 1.75781 30.4688 1.75781H32.2266C33.0666 1.75781 33.75 2.44125 33.75 3.28125C33.75 4.12125 33.0666 4.80469 32.2266 4.80469ZM15.2344 1.75781H16.9922C17.8322 1.75781 18.5156 2.44125 18.5156 3.28125C18.5156 4.12125 17.8322 4.80469 16.9922 4.80469H15.2344C14.3944 4.80469 13.7109 4.12125 13.7109 3.28125C13.7109 2.44125 14.3944 1.75781 15.2344 1.75781ZM49.3359 58.2422C47.3974 58.2422 45.8203 56.6651 45.8203 54.7266C45.8203 52.788 47.3974 51.2109 49.3359 51.2109C51.2745 51.2109 52.8516 52.788 52.8516 54.7266C52.8516 56.6651 51.2745 58.2422 49.3359 58.2422Z" fill="#63C463"/>
</g>
<defs>
<clipPath id="clip0">
<rect width="60" height="60" fill="white"/>
</clipPath>
</defs>
</svg>
