<svg width="50" height="50" viewBox="0 0 50 50" fill="none" xmlns="http://www.w3.org/2000/svg">
<path d="M28.3339 46.6632C38.4584 46.6632 46.6659 38.4557 46.6659 28.3312C46.6659 18.2068 38.4584 9.99927 28.3339 9.99927C18.2095 9.99927 10.002 18.2068 10.002 28.3312C10.0134 38.4509 18.2142 46.6517 28.3339 46.6632ZM14.1683 27.498H11.711C12.1453 18.9639 18.9666 12.1426 27.5006 11.7083V14.1656C27.5006 14.6258 27.8737 14.9989 28.3339 14.9989C28.7941 14.9989 29.1672 14.6258 29.1672 14.1656V11.7083C37.7012 12.1426 44.5225 18.9639 44.9568 27.498H41.6662C41.2061 27.498 40.833 27.8711 40.833 28.3312C40.833 28.7914 41.2061 29.1645 41.6662 29.1645H44.9568C44.5225 37.6984 37.7012 44.5198 29.1672 44.9541V42.4968C29.1672 42.0367 28.7941 41.6636 28.3339 41.6636C27.8737 41.6636 27.5006 42.0367 27.5006 42.4968V44.9541C18.9667 44.5198 12.1453 37.6985 11.711 29.1645H14.1683C14.6285 29.1645 15.0016 28.7914 15.0016 28.3312C15.0016 27.8711 14.6285 27.498 14.1683 27.498Z" fill="#63C463"/>
<path d="M47.094 17.5131C46.8456 17.0827 46.5824 16.661 46.3049 16.2488L48.3623 14.1914C48.6875 13.866 48.6875 13.3386 48.3623 13.0132L43.6543 8.30521C43.3289 7.97992 42.8014 7.97992 42.476 8.30521L40.4154 10.3592C37.0821 8.10877 33.1853 6.83667 29.1662 6.687V1.66654H34.9991C35.4593 1.66654 35.8324 1.29344 35.8324 0.833271C35.8324 0.373097 35.4593 0 34.9991 0H21.6668C21.2066 0 20.8335 0.373097 20.8335 0.833271C20.8335 1.29344 21.2066 1.66654 21.6668 1.66654H27.4997V6.6945C20.0681 6.97823 13.3028 11.0581 9.58433 17.4987H5.00134C4.54117 17.4987 4.16807 17.8718 4.16807 18.332C4.16807 18.7921 4.54117 19.1652 5.00134 19.1652H10.001C10.0226 19.1652 10.041 19.1544 10.0626 19.1527C10.3629 19.1566 10.6414 18.997 10.7901 18.7361C16.0917 9.04682 28.2441 5.4898 37.9335 10.7913C47.6228 16.0928 51.1796 28.2454 45.8782 37.9347C40.5766 47.6239 28.4242 51.181 18.7348 45.8795C15.3817 44.0448 12.6246 41.2877 10.79 37.9347C10.6428 37.6727 10.3647 37.5115 10.0642 37.5139C10.0425 37.5139 10.0234 37.5014 10.0009 37.5014H5.00124C4.54107 37.5014 4.16797 37.8745 4.16797 38.3346C4.16797 38.7948 4.54107 39.1679 5.00124 39.1679H9.58423C15.5641 49.5259 28.8085 53.0752 39.1665 47.0953C49.5246 41.1155 53.0738 27.871 47.094 17.5131ZM41.777 11.3606L43.065 10.0726L46.5948 13.6023L45.3049 14.8922C44.2675 13.5844 43.0838 12.3995 41.777 11.3606Z" fill="#63C463"/>
<path d="M8.33466 28.3312C8.33466 27.871 7.96156 27.4979 7.50139 27.4979H0.835224C0.37505 27.4979 0.00195312 27.871 0.00195312 28.3312C0.00195312 28.7914 0.37505 29.1645 0.835224 29.1645H7.50139C7.96156 29.1645 8.33466 28.7914 8.33466 28.3312Z" fill="#63C463"/>
<path d="M2.50124 24.1648H8.33414C8.79431 24.1648 9.16741 23.7917 9.16741 23.3316C9.16741 22.8714 8.79431 22.4983 8.33414 22.4983H2.50124C2.04107 22.4983 1.66797 22.8714 1.66797 23.3316C1.66797 23.7917 2.04096 24.1648 2.50124 24.1648Z" fill="#63C463"/>
<path d="M9.16741 33.3308C9.16741 32.8707 8.79431 32.4976 8.33414 32.4976H2.50124C2.04107 32.4976 1.66797 32.8707 1.66797 33.3308C1.66797 33.791 2.04107 34.1641 2.50124 34.1641H8.33414C8.79431 34.1641 9.16741 33.791 9.16741 33.3308Z" fill="#63C463"/>
<path d="M27.0778 32.9199C27.4032 33.2452 27.9307 33.2452 28.2561 32.9199L35.8386 24.3374C36.1583 24.0064 36.1492 23.4789 35.8181 23.1592C35.4952 22.8473 34.9833 22.8473 34.6603 23.1592L27.667 31.1525L22.709 26.1946C22.378 25.8749 21.8504 25.884 21.5308 26.215C21.2189 26.5379 21.2189 27.0498 21.5308 27.3728L27.0778 32.9199Z" fill="#63C463"/>
</svg>
