<svg width="71" height="65" viewBox="0 0 71 65" fill="none" xmlns="http://www.w3.org/2000/svg">
<path d="M38.6448 47.0482C36.0729 47.0482 35.0854 43.0693 33.2784 34.8345C32.6801 32.1097 31.8424 28.2911 31.1169 26.3841C30.4951 28.1043 29.8098 31.3328 29.3182 33.6521C27.7816 40.8899 26.9644 44.0905 24.6099 44.0216C22.8461 43.974 22.2069 42.0284 21.4669 39.7779C21.1155 38.709 20.4021 36.5395 19.8334 36.1144C19.6675 36.2536 19.3979 36.5592 19.1919 36.7937C18.4883 37.5955 17.5243 38.6924 15.8551 39.5162C12.7992 41.0246 8.95652 40.4542 7.85156 40.2431L8.41956 37.2703C10.1327 37.5978 12.7561 37.6712 14.5131 36.8035C15.6438 36.246 16.3186 35.4767 16.9146 34.7989C17.6439 33.9683 18.5618 32.9358 20.0432 33.0591C22.5136 33.2648 23.486 36.2241 24.3441 38.8339C24.4463 39.144 24.5675 39.5124 24.6924 39.8687C25.2695 38.1326 25.8974 35.1779 26.354 33.0243C27.8596 25.9317 28.6889 22.5194 31.0518 22.4641C31.0715 22.4641 31.0919 22.4634 31.1116 22.4634C33.5608 22.4634 34.4583 26.0808 36.2373 34.1869C36.8954 37.1878 37.8307 41.4512 38.6373 43.328C39.2643 41.8128 39.9808 38.7945 40.4912 36.6424C42.1112 29.8184 43.0798 26.2457 45.6517 26.2457C45.6623 26.2457 45.6722 26.2457 45.6835 26.2457C47.4943 26.2661 48.135 28.0838 48.8136 30.0083C49.5906 32.2133 50.5585 34.9578 53.0047 36.2574C55.6652 37.6697 60.2388 36.8096 60.7515 36.7067L61.3475 39.6735C59.9229 39.9587 55.0093 40.7492 51.5824 38.9292C48.0941 37.0766 46.8074 33.4282 45.9562 31.0144C45.8365 30.674 45.6956 30.2745 45.5586 29.9243C44.8186 31.531 43.981 35.0614 43.4395 37.3421C41.89 43.8711 41.0403 47.0111 38.6865 47.0497C38.6721 47.0482 38.6585 47.0482 38.6448 47.0482Z" fill="#5A9D5A"/>
<path d="M64.5864 34.8357L62.0432 33.1927C67.4605 24.8255 70.4504 12.7525 61.0481 6.25908C56.9176 3.40648 52.8674 2.43821 49.011 3.38303C41.4437 5.23559 36.8384 13.8146 36.7929 13.9008L35.566 16.2246L34.1687 14.0007C34.1142 13.9137 28.5508 5.22046 20.4496 3.72797C16.4925 2.99951 12.5036 4.11679 8.59275 7.04957C0.987585 12.7525 1.94259 24.5275 6.70168 32.7101L4.08206 34.2306C-1.33289 24.9201 -2.22958 11.3818 6.77439 4.62967C11.3957 1.16434 16.1858 -0.139033 21.0161 0.755099C27.9306 2.03654 33.0305 7.49437 35.3517 10.4627C37.3761 7.45882 41.8095 2.03729 48.2718 0.447221C53.0105 -0.719235 57.8893 0.398808 62.7703 3.76958C73.9561 11.4945 70.7397 25.3324 64.5864 34.8357Z" fill="#63C463"/>
<path d="M35.5209 64.0013L34.6529 63.462C34.1842 63.1715 23.0733 56.2264 13.4316 46.239L15.6128 44.1383C23.4769 52.2853 32.5801 58.4966 35.3853 60.3348C38.0148 58.3309 46.4507 51.69 53.9885 43.4363L56.2264 45.4749C46.9945 55.585 36.4516 63.3213 36.3464 63.3977L35.5209 64.0013Z" fill="#63C463"/>
</svg>
