<svg width="60" height="60" viewBox="0 0 60 60" fill="none" xmlns="http://www.w3.org/2000/svg">
<g clip-path="url(#clip0)">
<path d="M59.9824 27.4996C59.8571 25.8734 59.122 24.4203 57.9127 23.4078C56.7806 22.4601 55.358 22.0184 53.9065 22.1639C51.927 22.3625 50.1835 23.6574 49.324 25.5216L47.525 25.6805L45.7494 25.1828C45.6114 25.1442 45.5 25.0349 45.4515 24.8905C44.9356 23.3555 44.1991 21.9059 43.2607 20.5782L43.8891 18.8887L45.8724 16.7437C47.0004 16.7059 48.0493 16.2086 48.8016 15.3416C50.1627 13.7727 50.1061 11.3684 48.6726 9.86795C47.8858 9.04452 46.826 8.59318 45.6925 8.60531C44.5732 8.61444 43.4958 9.09076 42.7362 9.91238C41.9922 10.7171 41.6112 11.7666 41.6586 12.8471L39.6751 14.9925L38.0131 15.7634C35.5342 14.3144 32.7192 13.5307 29.8399 13.4889L28.7532 11.7558L28.3699 9.85137C29.8968 8.60291 30.6102 6.66373 30.2022 4.75338C29.5899 1.88665 26.6379 0.0192941 23.6223 0.591343C22.1039 0.879108 20.8121 1.72343 19.9847 2.96841C19.2097 4.13473 18.942 5.52227 19.2311 6.87535C19.6164 8.67941 20.9242 10.1347 22.7034 10.784L23.1267 12.8879L22.79 14.9387C21.256 15.6248 19.8413 16.5345 18.5739 17.6494L17.3282 17.4274L15.9206 16.3655C15.7194 15.2965 15.1023 14.3553 14.1855 13.7402C12.4744 12.592 10.1734 12.9061 8.83332 14.4706C8.09253 15.3356 7.75191 16.4335 7.8743 17.5617C7.995 18.6743 8.57654 19.6989 9.46974 20.3728C10.3933 21.0696 11.5679 21.3353 12.6922 21.1193L13.8717 22.0091L14.4008 23.0917C14.4242 23.1396 14.4248 23.1949 14.4026 23.2432C13.3936 25.4371 12.8821 27.7793 12.8821 30.2049C12.8821 30.6539 12.9007 31.1102 12.9373 31.5614C12.943 31.631 12.9155 31.6947 12.8636 31.7315L10.8717 33.1508L8.59816 33.866C7.20221 32.7859 5.35635 32.4597 3.65738 33.0212C3.62339 33.0325 3.58988 33.0446 3.55649 33.057L3.52839 33.0673C3.06035 33.2359 2.81762 33.752 2.98612 34.2201C3.15463 34.688 3.67047 34.931 4.13887 34.7623L4.18102 34.747C4.1952 34.7418 4.20937 34.7364 4.22342 34.7317C5.4642 34.3214 6.82376 34.6266 7.77173 35.528C7.94168 35.6895 8.16471 35.7759 8.39242 35.7759C8.48274 35.7759 8.5739 35.7623 8.66265 35.7343L11.5485 34.8265C11.6387 34.7981 11.7238 34.7557 11.8009 34.7008L13.909 33.1988C14.4742 32.7962 14.7899 32.1127 14.733 31.4151C14.7003 31.0124 14.6836 30.6052 14.6836 30.2048C14.6836 28.0409 15.1398 25.9518 16.0395 23.9957C16.2885 23.4542 16.2812 22.8364 16.0195 22.3007L15.3957 21.0243C15.3335 20.8968 15.2421 20.7861 15.129 20.7007L13.4333 19.4214C13.1995 19.2451 12.8946 19.1933 12.6161 19.2827C11.9128 19.508 11.1423 19.3778 10.5549 18.9346C10.0496 18.5535 9.73385 17.9968 9.66551 17.3673C9.59729 16.7384 9.78777 16.1259 10.2018 15.6425C10.9356 14.7858 12.2446 14.6072 13.1819 15.2361C13.7597 15.6239 14.1243 16.2429 14.1823 16.9347C14.2037 17.19 14.3328 17.4242 14.5375 17.5785L16.4156 18.9955C16.5288 19.0809 16.6605 19.1383 16.8001 19.1632L18.6924 19.5004C18.9709 19.5501 19.2561 19.4661 19.4631 19.2739C20.7815 18.0505 22.2883 17.0851 23.942 16.4045C24.2308 16.2856 24.4374 16.0257 24.488 15.7175L24.9314 13.0176C24.949 12.9103 24.947 12.8006 24.9256 12.694L24.3646 9.90578C24.2965 9.56721 24.0408 9.29734 23.7063 9.21122C22.3134 8.85236 21.2738 7.81311 20.9932 6.49931C20.8064 5.62448 20.9812 4.72467 21.4857 3.96562C22.0423 3.12791 22.9205 2.55814 23.9583 2.36141C26.0208 1.97084 28.0315 3.21234 28.4409 5.12966C28.7341 6.50267 28.1232 7.90727 26.8846 8.70811C26.5739 8.90905 26.4177 9.27956 26.4907 9.64227L27.02 12.2725C27.0415 12.3792 27.0821 12.481 27.1398 12.5733L28.4409 14.6487C28.6922 15.0495 29.1244 15.2888 29.5995 15.2888H29.6C32.3112 15.2888 34.9681 16.0276 37.2838 17.4256C37.672 17.66 38.1484 17.6865 38.5582 17.4966L40.5948 16.5519C40.7015 16.5024 40.7974 16.4325 40.8772 16.3463L43.2552 13.7742C43.4419 13.5724 43.526 13.2965 43.484 13.0248C43.3772 12.335 43.5869 11.6463 44.0593 11.1355C44.4889 10.6708 45.0743 10.4121 45.7075 10.4068C46.3382 10.4067 46.9306 10.6522 47.3703 11.1126C48.1684 11.9479 48.1995 13.2869 47.441 14.161C46.9654 14.7092 46.2772 14.9921 45.5528 14.9377C45.2788 14.9169 45.0102 15.0227 44.8238 15.2245L42.4457 17.7966C42.3659 17.8829 42.3038 17.984 42.2628 18.0941L41.4897 20.1729C41.3308 20.6001 41.397 21.0762 41.6665 21.4464C42.5626 22.6775 43.2616 24.0294 43.744 25.4647C43.9827 26.1749 44.5506 26.7181 45.2635 26.9178L47.1975 27.4599C47.3022 27.4893 47.4114 27.4992 47.5198 27.4898L50.0315 27.2679C50.3849 27.2367 50.6869 27.0012 50.8033 26.6661C51.3233 25.1681 52.6122 24.1045 54.0867 23.9567C55.051 23.8599 55.9995 24.1557 56.7567 24.7895C57.591 25.488 58.0989 26.4998 58.1866 27.6382C58.2445 28.3905 58.1085 29.146 57.7934 29.823C57.5835 30.274 57.7787 30.8098 58.2299 31.0198C58.6811 31.2298 59.2167 31.0345 59.4267 30.5834C59.8717 29.6261 60.0639 28.5599 59.9824 27.4996Z" fill="#63C463"/>
<path d="M55.4488 31.9598C55.196 32.0431 54.9351 32.0985 54.6735 32.1249C53.1147 32.2809 51.6577 31.4177 50.9603 29.9252C50.8 29.5822 50.4419 29.3757 50.0649 29.4093L47.7071 29.6176C47.5986 29.6272 47.4929 29.6563 47.3949 29.7036L45.6151 30.5622C44.9409 30.8874 44.4756 31.53 44.3708 32.2809C44.2146 33.3982 43.9301 34.4978 43.5252 35.5491C43.2836 36.1766 43.3314 36.87 43.6565 37.4512L44.2904 38.5847C44.3596 38.7084 44.457 38.8141 44.5748 38.893L46.3389 40.0765C46.5818 40.2396 46.8892 40.2743 47.1625 40.1698C47.8521 39.9059 48.6286 39.9931 49.2398 40.4032C49.7653 40.7557 50.1115 41.294 50.2146 41.9187C50.3175 42.5428 50.1614 43.165 49.7747 43.6707C49.0893 44.5669 47.7925 44.8176 46.8217 44.2415C46.2233 43.8864 45.8248 43.2884 45.7286 42.6009C45.6931 42.3471 45.5511 42.1205 45.3383 41.9778L43.3845 40.667C43.2668 40.588 43.132 40.5379 42.9914 40.5209L41.7617 40.3713C41.0738 40.2875 40.388 40.517 39.8806 41.0007C38.8958 41.939 37.7899 42.7383 36.5938 43.3762C35.8981 43.7471 35.435 44.4708 35.3853 45.2647L35.2293 47.7561C35.2235 47.8489 35.232 47.9422 35.2549 48.0324L36.028 51.1006C36.1069 51.4139 36.3477 51.661 36.6587 51.7479C37.7077 52.0413 38.5244 52.8782 38.79 53.9319C38.9921 54.7342 38.8643 55.5641 38.4299 56.2686C37.9958 56.9728 37.311 57.4598 36.5016 57.64C34.9928 57.9763 33.4358 57.0901 32.9578 55.6228C32.5967 54.5144 32.8884 53.3195 33.7186 52.5042C33.9469 52.2801 34.0392 51.9516 33.961 51.6414L33.1831 48.5545C33.1604 48.4643 33.1238 48.3781 33.0746 48.2991L31.8754 46.3701C31.3894 45.5881 30.5426 45.1215 29.601 45.1215C29.6004 45.1215 29.5998 45.1215 29.5991 45.1215C28.6251 45.1215 27.65 45.0263 26.7007 44.8384C25.7958 44.6592 24.8808 44.9482 24.2529 45.6108L22.6673 47.2841C22.6032 47.3517 22.55 47.4287 22.5096 47.5125L20.7347 51.195C20.6145 51.4444 20.6157 51.7354 20.7379 51.9838C21.0489 52.6156 21.0525 53.3404 20.7478 53.9726C20.4727 54.5432 19.9883 54.9621 19.3837 55.1522C18.7795 55.3422 18.141 55.2746 17.5856 54.9621C16.6088 54.4124 16.1768 53.1691 16.602 52.1318C16.8855 51.4401 17.4649 50.9465 18.1916 50.7774C18.4572 50.7156 18.6806 50.5368 18.799 50.2912L20.5854 46.5851C20.6258 46.5012 20.653 46.4116 20.6659 46.3195L21.0159 43.8315C21.1243 43.0608 20.8192 42.2802 20.2199 41.7943C18.87 40.6996 17.7302 39.3932 16.8321 37.9114C16.4386 37.2622 15.718 36.8544 14.9513 36.8472L12.4676 36.8235C12.3728 36.8223 12.2789 36.8366 12.1887 36.8649L9.46931 37.7204C9.1293 37.8274 8.88429 38.1248 8.84442 38.479C8.68804 39.8687 7.72602 41.0375 6.39348 41.4567C4.55579 42.0349 2.57338 41.0157 1.97515 39.1845C1.73735 38.4565 1.74503 37.684 1.99761 36.9504C2.15951 36.48 1.90945 35.9674 1.43901 35.8055C0.968449 35.6434 0.455971 35.8938 0.294073 36.3641C-0.0870123 37.4715 -0.0979417 38.6402 0.262606 39.7439C0.994511 41.9842 3.09763 43.4198 5.34595 43.4197C5.87248 43.4197 6.40741 43.3409 6.93406 43.1751C8.75362 42.6024 10.1153 41.1054 10.5344 39.2735L12.5937 38.6256L14.9347 38.6479C15.0824 38.6493 15.2193 38.7246 15.2919 38.8445C16.2977 40.5042 17.5742 41.9673 19.0857 43.193C19.197 43.2832 19.2532 43.4315 19.2323 43.58L18.9019 45.9291L17.3498 49.1494C16.2629 49.5341 15.3782 50.3684 14.9355 51.4483C14.159 53.3425 14.9186 55.5282 16.7026 56.532C17.6961 57.0912 18.8406 57.2115 19.9244 56.8707C20.993 56.5347 21.8849 55.7634 22.3712 54.7546C22.8511 53.7588 22.9052 52.6358 22.5347 51.6106L24.0721 48.421L25.5611 46.8497C25.7613 46.6383 26.0567 46.547 26.3515 46.6054C27.4156 46.8159 28.5084 46.9228 29.6102 46.9228H29.6109C29.9162 46.9228 30.1911 47.0716 30.346 47.3211L31.4711 49.1308L32.0966 51.6129C31.0551 52.8841 30.7269 54.5887 31.2453 56.1807C31.8987 58.1867 33.8152 59.5118 35.8644 59.5117C36.2055 59.5117 36.5505 59.475 36.8938 59.3986C38.182 59.1117 39.2724 58.3359 39.964 57.214C40.6557 56.0918 40.8593 54.7698 40.5372 53.4918C40.1585 51.9889 39.0768 50.7631 37.6561 50.1877L37.0365 47.7285L37.1837 45.3773C37.1946 45.2026 37.2936 45.0449 37.4418 44.9659C38.7819 44.2511 40.0206 43.3559 41.1238 42.305C41.2399 42.1944 41.3933 42.1416 41.5446 42.1599L42.5603 42.2834L44.0246 43.2658C44.2846 44.322 44.953 45.2274 45.9025 45.791C47.6747 46.8425 49.9546 46.4016 51.2059 44.765C51.8978 43.8603 52.1771 42.7454 51.9922 41.6256C51.81 40.5213 51.1726 39.5305 50.2435 38.9072C49.2828 38.2627 48.0953 38.0625 46.9847 38.3404L45.7577 37.5172L45.2291 36.572C45.1663 36.4596 45.1581 36.3228 45.2067 36.1967C45.6609 35.0172 45.98 33.7836 46.1551 32.5303C46.1765 32.3772 46.2674 32.2481 46.3981 32.185L48.0297 31.3979L49.6315 31.2564C50.7448 33.0991 52.7315 34.1306 54.8534 33.9176C55.2451 33.8783 55.6348 33.7955 56.0121 33.6714C56.4847 33.5159 56.7416 33.0068 56.586 32.5342C56.4305 32.0612 55.9213 31.8044 55.4488 31.9598Z" fill="#63C463"/>
<path d="M32.4941 17.9265C31.5497 17.7047 30.5761 17.5923 29.6001 17.5923C22.6455 17.5923 16.9873 23.2503 16.9873 30.2051C16.9873 37.1599 22.6453 42.8179 29.6001 42.8179C36.5549 42.8179 42.2129 37.1599 42.2129 30.2051C42.2129 25.8567 40.0164 21.8703 36.3373 19.5413C35.9168 19.2752 35.3602 19.4003 35.0943 19.8205C34.8282 20.2409 34.9533 20.7973 35.3737 21.0635C38.5282 23.0603 40.4114 26.4778 40.4114 30.2051C40.4114 36.1664 35.5615 41.0164 29.6001 41.0164C23.6387 41.0164 18.7888 36.1665 18.7888 30.2051C18.7888 24.2437 23.6387 19.3938 29.6001 19.3938C30.4376 19.3938 31.2727 19.4903 32.0823 19.6804C32.5666 19.7945 33.0514 19.4937 33.1651 19.0095C33.2789 18.5251 32.9784 18.0404 32.4941 17.9265Z" fill="#63C463"/>
<path d="M9.89239 9.81285C12.2283 9.81285 14.1285 7.91259 14.1285 5.57671C14.1285 3.24084 12.2283 1.34058 9.89239 1.34058C7.55651 1.34058 5.65625 3.24096 5.65625 5.57683C5.65625 7.91259 7.55651 9.81285 9.89239 9.81285ZM9.89239 3.14223C11.2348 3.14223 12.327 4.23445 12.327 5.57683C12.327 6.91922 11.2348 8.01143 9.89239 8.01143C8.55 8.01143 7.45779 6.91922 7.45779 5.57683C7.45779 4.23445 8.55 3.14223 9.89239 3.14223Z" fill="#63C463"/>
<path d="M8.98088 46.438C7.26942 46.438 5.87695 47.8303 5.87695 49.5418C5.87695 51.2533 7.2693 52.6457 8.98088 52.6457C10.6923 52.6457 12.0847 51.2534 12.0847 49.5418C12.0847 47.8305 10.6923 46.438 8.98088 46.438ZM8.98088 50.8442C8.26279 50.8442 7.67849 50.26 7.67849 49.5418C7.67849 48.8237 8.26267 48.2395 8.98088 48.2395C9.69898 48.2395 10.2832 48.8237 10.2832 49.5418C10.2832 50.26 9.69898 50.8442 8.98088 50.8442Z" fill="#63C463"/>
<path d="M49.4299 49.0151C47.144 49.0151 45.2842 50.8748 45.2842 53.1608C45.2842 55.4469 47.1438 57.3065 49.4299 57.3065C51.7159 57.3065 53.5756 55.4469 53.5756 53.1608C53.5756 50.8748 51.7158 49.0151 49.4299 49.0151ZM49.4299 55.5049C48.1373 55.5049 47.0857 54.4534 47.0857 53.1607C47.0857 51.8681 48.1372 50.8166 49.4299 50.8166C50.7225 50.8166 51.774 51.8681 51.774 53.1607C51.774 54.4534 50.7224 55.5049 49.4299 55.5049Z" fill="#63C463"/>
<path d="M29.9302 26.9751C29.9302 24.8103 28.169 23.0491 26.0042 23.0491C23.8393 23.0491 22.0781 24.8103 22.0781 26.9751C22.0781 29.14 23.8393 30.9011 26.0042 30.9011C28.169 30.9011 29.9302 29.1398 29.9302 26.9751ZM26.0042 29.0996C24.8327 29.0996 23.8797 28.1466 23.8797 26.9751C23.8797 25.8036 24.8327 24.8506 26.0042 24.8506C27.1756 24.8506 28.1287 25.8036 28.1287 26.9751C28.1287 28.1466 27.1756 29.0996 26.0042 29.0996Z" fill="#63C463"/>
<path d="M28.4326 39.3315C30.0647 39.3315 31.3925 38.0036 31.3925 36.3716C31.3925 34.7395 30.0647 33.4116 28.4326 33.4116C26.8005 33.4116 25.4727 34.7395 25.4727 36.3716C25.4727 38.0037 26.8004 39.3315 28.4326 39.3315ZM28.4326 35.2133C29.0713 35.2133 29.591 35.733 29.591 36.3717C29.591 37.0104 29.0713 37.5301 28.4326 37.5301C27.7939 37.5301 27.2742 37.0104 27.2742 36.3717C27.2742 35.733 27.7938 35.2133 28.4326 35.2133Z" fill="#63C463"/>
<path d="M32.2686 30.2048C32.2686 31.6549 33.4483 32.8347 34.8984 32.8347C36.3486 32.8347 37.5283 31.6549 37.5283 30.2048C37.5283 28.7547 36.3486 27.575 34.8984 27.575C33.4483 27.575 32.2686 28.7546 32.2686 30.2048ZM34.8984 29.3764C35.3552 29.3764 35.7268 29.748 35.7268 30.2047C35.7268 30.6615 35.3552 31.0331 34.8984 31.0331C34.4417 31.0331 34.0701 30.6615 34.0701 30.2047C34.0701 29.748 34.4416 29.3764 34.8984 29.3764Z" fill="#63C463"/>
</g>
<defs>
<clipPath id="clip0">
<rect width="60" height="60" fill="white"/>
</clipPath>
</defs>
</svg>
