<svg width="0" height="0" class="hidden">
	<symbol xmlns="http://www.w3.org/2000/svg" viewBox="0 0 20 20" id="search"><path d="M8.4 0a8.5 8.5 0 100 17 8.5 8.5 0 000-17zm0 15.4a7 7 0 110-14 7 7 0 010 14zm11.4 3.3l-5.4-5.3a.7.7 0 10-1 1l5.3 5.4a.7.7 0 001 0c.4-.3.4-.8 0-1z"/></symbol>

	<symbol xmlns="http://www.w3.org/2000/svg" viewBox="0 0 53 25" id="heartline"><path d="M30.5 25c-2.54 0-3.52-4.05-5.3-12.42-.6-2.77-1.43-6.65-2.15-8.6a71.63 71.63 0 00-1.78 7.4c-1.52 7.36-2.33 10.61-4.67 10.54-1.74-.05-2.38-2.03-3.11-4.31-.35-1.1-1.06-3.3-1.62-3.73-.16.14-.43.45-.63.7-.7.8-1.66 1.92-3.31 2.76-3.03 1.53-6.84.95-7.93.74l.56-3.02c1.7.33 4.3.4 6.04-.48 1.12-.57 1.79-1.35 2.38-2.04.72-.84 1.63-1.9 3.1-1.77 2.45.21 3.4 3.22 4.26 5.88l.34 1.05c.58-1.77 1.2-4.77 1.65-6.96C19.83 3.53 20.64.06 23 0h.05c2.43 0 3.32 3.68 5.08 11.92.65 3.05 1.58 7.39 2.38 9.3a58.74 58.74 0 001.84-6.8c1.6-6.94 2.56-10.57 5.11-10.57h.03c1.8.02 2.43 1.87 3.1 3.82.77 2.24 1.73 5.03 4.15 6.36 2.64 1.43 7.17.56 7.68.45L53 17.5c-1.41.29-6.28 1.1-9.67-.76-3.46-1.88-4.74-5.6-5.58-8.05a35.6 35.6 0 00-.4-1.1c-.73 1.63-1.56 5.22-2.1 7.54-1.53 6.64-2.37 9.83-4.7 9.87h-.04z"/></symbol>

	<symbol xmlns="http://www.w3.org/2000/svg" viewBox="0 0 54 34" id="heartbeat"><path d="M19.76 34c-.95 0-1.77-.42-1.96-1.35l-2.66-12.71-1.75 3.02A2.05 2.05 0 0111.67 24H2a2 2 0 010-4h8.53l3.8-6.43a2 2 0 013.68.61l1.6 7.77 3.67-20.34c.17-.95 1-1.61 1.97-1.61h.01c.97 0 1.8.67 1.96 1.63l3.92 22.83 1.25-3.2A2 2 0 0134.25 20H52a2 2 0 010 4H35.61l-3.38 8.55a2 2 0 01-3.84-.4L25.2 13.5l-3.48 19.1c-.17.94-.98 1.4-1.94 1.4h-.02z"/></symbol>

	<symbol xmlns="http://www.w3.org/2000/svg" viewBox="0 0 6 10" id="arrow-right"><path d="M.502 9.646l-.335-.315a.507.507 0 010-.743l3.796-3.586-3.8-3.592a.507.507 0 010-.742L.495.353a.58.58 0 01.786 0L5.822 4.63c.105.1.178.23.178.373v.002a.527.527 0 01-.178.371L1.293 9.647a.582.582 0 01-.397.153.573.573 0 01-.394-.154z"/></symbol>

	<symbol xmlns="http://www.w3.org/2000/svg" viewBox="0 0 8 12" id="arrow-left"><path d="M.2 5.53L5.52.2a.65.65 0 01.93 0l.39.4c.25.25.25.67 0 .92L2.37 6l4.48 4.49c.13.12.2.29.2.46 0 .18-.07.34-.2.47l-.4.39A.65.65 0 016 12a.65.65 0 01-.47-.2L.2 6.47A.65.65 0 010 6c0-.18.07-.34.2-.47z"/></symbol>

	<symbol xmlns="http://www.w3.org/2000/svg" viewBox="0 0 29 20" id="filter"><path d="M28.1 10c-.17.4-.48.55-.91.54-.66-.02-1.32 0-1.98 0l-.16.42a2.8 2.8 0 01-5.2-.17c-.08-.2-.17-.26-.37-.26L.9 10.54c-.43 0-.75-.13-.91-.54v-.33c.16-.42.48-.55.91-.55h18.54c.22 0 .33-.05.4-.27a2.8 2.8 0 015.26 0l.1.27c.66 0 1.32.02 1.98 0 .43-.01.74.13.91.55V10zm-4.22-.18a1.4 1.4 0 10-2.8.02 1.4 1.4 0 102.8-.01z"/><path d="M0 16.7c.16-.42.48-.56.91-.56l10.12.01c.21 0 .31-.04.4-.26a2.77 2.77 0 012.62-1.84c1.19 0 2.23.72 2.63 1.84.07.2.15.27.36.27 3.38-.01 6.77 0 10.15-.02.43 0 .74.14.91.55v.33c-.17.41-.48.55-.91.55l-10.12-.01c-.2 0-.31.04-.4.26a2.77 2.77 0 01-2.62 1.84 2.78 2.78 0 01-2.63-1.84c-.08-.21-.18-.26-.39-.26H.91c-.43 0-.75-.12-.91-.54v-.33zm14.05 1.56c.77 0 1.4-.62 1.4-1.39a1.41 1.41 0 00-1.4-1.42c-.77 0-1.41.65-1.4 1.42 0 .77.63 1.4 1.4 1.4z"/><path d="M28.1 2.97c-.16.41-.48.55-.91.55L8.65 3.5c-.22 0-.33.05-.4.28a2.8 2.8 0 01-5.26 0l-.1-.28H.9c-.43.02-.74-.13-.91-.54v-.33c.16-.41.48-.56.91-.55.66.02 1.32 0 1.94 0 .16-.3.27-.6.45-.86A2.68 2.68 0 015.95.03c1.11.13 1.89.75 2.29 1.8.08.21.18.27.4.27H27.2c.43 0 .75.13.91.54v.33zM7.02 2.8a1.4 1.4 0 10-2.8 0 1.4 1.4 0 002.8 0z"/></symbol>

	<symbol xmlns="http://www.w3.org/2000/svg" viewBox="0 0 16 16" id="cross"><path d="M8.94 8l6.86-6.85a.67.67 0 10-.95-.95L8 7.06 1.14.2a.67.67 0 00-.95.95L7.05 8 .2 14.86a.67.67 0 00.95.95L8 8.95l6.85 6.86a.67.67 0 00.95-.95L8.94 8z"/></symbol>

	<symbol xmlns="http://www.w3.org/2000/svg" viewBox="0 0 20 20" id="phone"><path d="M19.61 15.9l-2.22-1.47-1.97-1.32a.87.87 0 00-1.17.2l-1.22 1.56a.87.87 0 01-1.1.23c-.84-.46-1.81-.9-3.97-3.06S5.36 8.91 4.9 8.08a.87.87 0 01.23-1.11L6.7 5.75c.36-.28.44-.8.19-1.17L5.62 2.67 4.1.39A.87.87 0 002.92.12L1.17 1.18C.7 1.45.35 1.9.2 2.43c-.48 1.75-.58 5.6 5.6 11.77 6.17 6.18 10.02 6.08 11.77 5.6.53-.15.98-.5 1.25-.97l1.06-1.75a.87.87 0 00-.27-1.18zM11.38 3.1a5.87 5.87 0 015.86 5.87.34.34 0 10.7 0 6.56 6.56 0 00-6.56-6.56.34.34 0 100 .7zm0 2.07c2.1 0 3.79 1.7 3.8 3.8a.34.34 0 00.68 0c0-2.48-2-4.48-4.48-4.49a.34.34 0 000 .7zm0 2.07c.95 0 1.72.77 1.72 1.73a.34.34 0 00.7 0 2.42 2.42 0 00-2.42-2.42.34.34 0 100 .7z"/></symbol>

	<symbol xmlns="http://www.w3.org/2000/svg" viewBox="0 0 28 28" id="location"><path d="M14 13.46a3.28 3.28 0 100-6.57 3.28 3.28 0 000 6.57zm0-4.92a1.64 1.64 0 110 3.29 1.64 1.64 0 010-3.29z"/><path d="M24.44 18.87h-5.5c2.57-2.45 4.9-4.85 4.9-9.03A9.61 9.61 0 0014 0a9.62 9.62 0 00-9.84 9.84c0 4.18 2.33 6.58 4.9 9.03h-5.5L.56 28h26.88l-3-9.13zM5.8 9.84c0-4.75 3.45-8.2 8.2-8.2 4.75 0 8.2 3.45 8.2 8.2 0 5.32-4.49 7.2-8.2 11.78a38.03 38.03 0 00-3.47-3.61C7.89 15.49 5.8 13.5 5.8 9.84zm-2.3 14.5l.53-1.64.72-2.2h5.97v-.03c2.18 2.16 2.77 3.24 3.28 3.9.53-.67 1.1-1.73 3.28-3.9v.04h5.97l.72 2.19.54 1.64.66 2.02H2.83l.66-2.02z"/></symbol>

	<symbol xmlns="http://www.w3.org/2000/svg" viewBox="0 0 18 18" id="clock"><path d="M9 0a9.01 9.01 0 000 18A9.01 9.01 0 009 0zm0 16.88A7.88 7.88 0 119.02 1.1 7.88 7.88 0 019 16.88z"/><path d="M9.56 3.37H8.44v5.86l3.54 3.54.8-.8-3.22-3.2v-5.4z"/></symbol>

	<symbol xmlns="http://www.w3.org/2000/svg" viewBox="0 0 16 20" id="phone-stroke"><path d="M10.79 20a7.21 7.21 0 01-4.6-1.87c-.9-.75-1.64-1.64-2.24-2.64-.95-1.63-1.92-3.25-2.81-4.9A8.9 8.9 0 01.03 5.55 6.4 6.4 0 013.16.42L3.4.27C4.09-.2 4.73 0 5.19.45a8.64 8.64 0 012.21 3.8c.27 1.11-.08 1.93-1.08 2.5-.19.11-.37.23-.56.33-.71.33-.78.9-.68 1.54.03.17.1.34.18.49l2.28 3.93c.22.38.56.62.96.77a1 1 0 00.9-.08l.74-.43c.97-.56 1.87-.45 2.7.32.1.1.22.2.31.33.76.98 1.48 2 1.83 3.2.08.3.1.61.09.91-.02.36-.21.66-.52.86A6.68 6.68 0 0110.8 20zm.06-1.03c.95-.01 1.8-.19 2.6-.61.71-.4.74-.47.43-1.24a9.37 9.37 0 00-1.35-2.28c-.22-.27-.5-.5-.77-.72-.28-.22-.6-.2-.9-.03l-1 .57c-.32.18-.66.27-1.04.24a2.6 2.6 0 01-2.17-1.32 219.4 219.4 0 01-2.3-3.98c-.16-.3-.28-.64-.33-.97-.13-.9.16-1.93 1.16-2.42.28-.15.55-.33.83-.48.33-.19.45-.47.43-.83 0-.14-.02-.28-.06-.4a8.83 8.83 0 00-1.62-3.03 1.83 1.83 0 00-.42-.36.3.3 0 00-.26-.02c-.25.13-.5.25-.71.42a5.46 5.46 0 00-2.32 4.46 8.64 8.64 0 001.18 4.45c.85 1.53 1.73 3.03 2.62 4.54a9.26 9.26 0 002.04 2.4 6.22 6.22 0 003.96 1.61z"/></symbol>
</svg>