<svg width="221" height="65" viewBox="0 0 221 65" fill="none" xmlns="http://www.w3.org/2000/svg">
<path d="M38.6446 47.0483C36.0727 47.0483 35.0851 43.0693 33.2781 34.8345C32.6798 32.1098 31.8422 28.2912 31.1167 26.3841C30.4949 28.1043 29.8095 31.3329 29.318 33.6522C27.7814 40.89 26.9642 44.0905 24.6096 44.0217C22.8458 43.974 22.2066 42.0284 21.4667 39.778C21.1153 38.7091 20.4019 36.5396 19.8331 36.1144C19.6673 36.2536 19.3977 36.5592 19.1917 36.7937C18.4881 37.5956 17.524 38.6924 15.8548 39.5162C12.799 41.0246 8.95627 40.4542 7.85132 40.2432L8.41932 37.2703C10.1324 37.5979 12.7558 37.6712 14.5128 36.8036C15.6435 36.2461 16.3183 35.4768 16.9144 34.799C17.6437 33.9684 18.5616 32.9358 20.0429 33.0591C22.5133 33.2649 23.4858 36.2241 24.3438 38.8339C24.4461 39.1441 24.5672 39.5124 24.6922 39.8687C25.2693 38.1327 25.8971 35.178 26.3538 33.0243C27.8594 25.9318 28.6887 22.5194 31.0515 22.4642C31.0712 22.4642 31.0917 22.4634 31.1114 22.4634C33.5606 22.4634 34.458 26.0808 36.237 34.187C36.8951 37.1879 37.8305 41.4512 38.637 43.328C39.2641 41.8128 39.9805 38.7946 40.491 36.6425C42.1109 29.8185 43.0795 26.2457 45.6515 26.2457C45.6621 26.2457 45.6719 26.2457 45.6833 26.2457C47.4941 26.2661 48.1348 28.0839 48.8133 30.0083C49.5904 32.2134 50.5582 34.9578 53.0044 36.2574C55.665 37.6697 60.2385 36.8096 60.7512 36.7068L61.3472 39.6736C59.9227 39.9588 55.0091 40.7493 51.5822 38.9292C48.0939 37.0767 46.8072 33.4283 45.9559 31.0144C45.8363 30.674 45.6954 30.2746 45.5583 29.9244C44.8184 31.5311 43.9808 35.0615 43.4393 37.3422C41.8898 43.8711 41.04 47.0112 38.6862 47.0498C38.6719 47.0483 38.6582 47.0483 38.6446 47.0483Z" fill="#5A9D5A"/>
<path d="M64.5864 34.8357L62.0432 33.1927C67.4605 24.8255 70.4504 12.7525 61.0481 6.25908C56.9176 3.40648 52.8674 2.43821 49.011 3.38303C41.4437 5.23559 36.8384 13.8146 36.7929 13.9008L35.566 16.2246L34.1687 14.0007C34.1142 13.9137 28.5508 5.22046 20.4496 3.72797C16.4925 2.99951 12.5036 4.11679 8.59275 7.04957C0.987585 12.7525 1.94259 24.5275 6.70168 32.7101L4.08206 34.2306C-1.33289 24.9201 -2.22958 11.3818 6.77439 4.62967C11.3957 1.16434 16.1858 -0.139033 21.0161 0.755099C27.9306 2.03654 33.0305 7.49437 35.3517 10.4627C37.3761 7.45882 41.8095 2.03729 48.2718 0.447221C53.0105 -0.719235 57.8893 0.398808 62.7703 3.76958C73.9561 11.4945 70.7397 25.3324 64.5864 34.8357Z" fill="#63C463"/>
<path d="M35.5206 64.0012L34.6527 63.4618C34.1839 63.1714 23.073 56.2263 13.4314 46.2388L15.6125 44.1382C23.4767 52.2852 32.5798 58.4965 35.385 60.3347C38.0145 58.3308 46.4505 51.6899 53.9882 43.4362L56.2261 45.4748C46.9942 55.5849 36.4513 63.3211 36.3461 63.3975L35.5206 64.0012Z" fill="#63C463"/>
<path d="M90.2926 42.0852C89.6792 42.0852 89.2241 41.7675 88.9294 41.132L78.8758 17.7802C78.6032 17.0994 78.5804 16.5495 78.8076 16.1289C79.0341 15.709 79.4431 15.4987 80.0345 15.4987C80.6699 15.4987 81.1251 15.8051 81.3977 16.4178L90.5994 38.408H89.9518L99.1876 16.4526C99.3458 16.0895 99.5337 15.8399 99.7495 15.7037C99.9653 15.5676 100.255 15.4995 100.618 15.4995C101.186 15.4995 101.572 15.7158 101.777 16.1463C101.981 16.5775 101.97 17.054 101.743 17.576L91.621 41.132C91.4847 41.4717 91.3029 41.716 91.0757 41.8635C90.8493 42.011 90.588 42.0852 90.2926 42.0852Z" fill="#5A9D5A"/>
<path d="M107.468 42.0852C107.059 42.0852 106.713 41.943 106.429 41.6593C106.145 41.3756 106.003 41.0292 106.003 40.6207V16.9633C106.003 16.5328 106.145 16.1803 106.429 15.908C106.713 15.6357 107.059 15.4995 107.468 15.4995C108.059 15.4995 108.502 15.7605 108.798 16.2824L120.01 38.579H118.886L129.86 16.2824C130.155 15.7605 130.598 15.4995 131.189 15.4995C131.598 15.4995 131.939 15.6357 132.212 15.908C132.484 16.1803 132.62 16.5328 132.62 16.9633V40.6207C132.62 41.0292 132.478 41.3756 132.194 41.6593C131.91 41.943 131.575 42.0852 131.189 42.0852C130.757 42.0852 130.399 41.943 130.116 41.6593C129.831 41.3756 129.689 41.0292 129.689 40.6207V20.9112L130.303 20.8772L120.624 40.6207C120.329 41.0972 119.897 41.3355 119.329 41.3355C118.693 41.3355 118.239 41.0405 117.966 40.4505L108.287 21.0814L108.969 20.9112V40.6207C108.969 41.0292 108.821 41.3756 108.525 41.6593C108.229 41.943 107.877 42.0852 107.468 42.0852Z" fill="#63C463"/>
<path d="M140.901 42.0852C140.492 42.0852 140.146 41.943 139.862 41.6593C139.578 41.3756 139.435 41.0292 139.435 40.6207V16.9633C139.435 16.5328 139.578 16.1803 139.862 15.908C140.146 15.6357 140.492 15.4995 140.901 15.4995H156.715C157.124 15.4995 157.47 15.6304 157.754 15.8914C158.038 16.1523 158.18 16.4988 158.18 16.93C158.18 17.3158 158.038 17.6395 157.754 17.8997C157.47 18.1607 157.124 18.2916 156.715 18.2916H142.401V27.3123H152.761C153.192 27.3123 153.545 27.4485 153.819 27.7208C154.091 27.9931 154.228 28.3222 154.228 28.708C154.228 29.1165 154.091 29.4569 153.819 29.7292C153.546 30.0015 153.193 30.1377 152.761 30.1377H142.401V39.2938H156.715C157.124 39.2938 157.47 39.4247 157.754 39.6857C158.038 39.9474 158.18 40.2697 158.18 40.6555C158.18 41.0866 158.038 41.4331 157.754 41.6941C157.47 41.9551 157.124 42.0859 156.715 42.0859H140.901V42.0852Z" fill="#63C463"/>
<path d="M164.587 42.0852C164.178 42.0852 163.831 41.943 163.547 41.6593C163.263 41.3756 163.121 41.0292 163.121 40.6207V16.9633C163.121 16.5328 163.263 16.1803 163.547 15.908C163.831 15.6357 164.178 15.4995 164.587 15.4995H170.756C172.71 15.4995 174.493 15.8233 176.106 16.47C177.718 17.1168 179.117 18.0359 180.297 19.2273C181.479 20.4187 182.394 21.8205 183.041 23.431C183.688 25.043 184.012 26.8237 184.012 28.7753C184.012 30.7277 183.688 32.5145 183.041 34.1371C182.394 35.7597 181.479 37.1659 180.297 38.3581C179.116 39.5503 177.719 40.4686 176.106 41.1154C174.492 41.7622 172.71 42.0859 170.756 42.0859H164.587V42.0852ZM166.086 39.464H170.755C172.777 39.464 174.566 39.0049 176.123 38.085C177.679 37.1659 178.9 35.9011 179.786 34.2899C180.672 32.6794 181.115 30.8404 181.115 28.7753C181.115 26.7109 180.672 24.8728 179.786 23.2607C178.9 21.6495 177.679 20.39 176.123 19.4823C174.566 18.5745 172.777 18.1206 170.755 18.1206H166.086V39.464Z" fill="#63C463"/>
<path d="M190.964 42.0852C190.555 42.0852 190.209 41.943 189.925 41.6593C189.641 41.3756 189.498 41.0292 189.498 40.6207V16.9633C189.498 16.5328 189.641 16.1803 189.925 15.908C190.209 15.6357 190.555 15.4995 190.964 15.4995C191.395 15.4995 191.753 15.6357 192.038 15.908C192.322 16.1803 192.464 16.5328 192.464 16.9633V40.6207C192.464 41.0292 192.322 41.3756 192.038 41.6593C191.753 41.943 191.395 42.0852 190.964 42.0852Z" fill="#63C463"/>
<path d="M211.241 42.4256C209.401 42.4256 207.68 42.0738 206.079 41.3696C204.477 40.6661 203.068 39.6902 201.853 38.4421C200.637 37.1947 199.694 35.7476 199.024 34.1023C198.354 32.4577 198.019 30.6816 198.019 28.7753C198.019 26.8917 198.354 25.1277 199.024 23.4824C199.694 21.8371 200.631 20.396 201.836 19.1592C203.04 17.9224 204.443 16.9466 206.045 16.2317C207.647 15.5169 209.379 15.1599 211.242 15.1599C212.9 15.1599 214.389 15.3928 215.707 15.8581C217.024 16.3233 218.309 17.0782 219.558 18.1214C219.763 18.2802 219.892 18.4565 219.951 18.6494C220.007 18.8423 220.013 19.0291 219.967 19.2107C219.921 19.393 219.83 19.5405 219.695 19.6532C219.672 19.9255 219.547 20.1411 219.32 20.3C219.093 20.4588 218.831 20.533 218.536 20.5209C218.241 20.5088 217.945 20.3907 217.65 20.1631C216.786 19.4142 215.855 18.8529 214.856 18.4777C213.856 18.1032 212.652 17.9156 211.243 17.9156C209.812 17.9156 208.471 18.1993 207.221 18.7666C205.972 19.334 204.87 20.1177 203.916 21.1154C202.961 22.1147 202.217 23.2721 201.684 24.5876C201.149 25.9038 200.883 27.2995 200.883 28.7746C200.883 30.295 201.149 31.7081 201.684 33.013C202.217 34.3186 202.962 35.47 203.916 36.4685C204.87 37.467 205.972 38.2499 207.221 38.8165C208.47 39.3839 209.812 39.6675 211.243 39.6675C212.447 39.6675 213.594 39.4633 214.685 39.0548C215.776 38.6463 216.809 38.0669 217.786 37.3187C218.104 37.0691 218.434 36.967 218.775 37.0124C219.116 37.0585 219.406 37.2053 219.644 37.4549C219.882 37.7045 220.002 38.0336 220.002 38.4421C220.002 38.6236 219.968 38.7999 219.899 38.9693C219.831 39.1403 219.729 39.3158 219.593 39.4973C218.411 40.5185 217.111 41.2621 215.692 41.7266C214.269 42.1918 212.786 42.4256 211.241 42.4256Z" fill="#63C463"/>
</svg>
